%TF.GenerationSoftware,KiCad,Pcbnew,(6.0.1)*%
%TF.CreationDate,2022-02-13T21:33:51+08:00*%
%TF.ProjectId,PCB-1.0,5043422d-312e-4302-9e6b-696361645f70,rev?*%
%TF.SameCoordinates,Original*%
%TF.FileFunction,Soldermask,Bot*%
%TF.FilePolarity,Negative*%
%FSLAX46Y46*%
G04 Gerber Fmt 4.6, Leading zero omitted, Abs format (unit mm)*
G04 Created by KiCad (PCBNEW (6.0.1)) date 2022-02-13 21:33:51*
%MOMM*%
%LPD*%
G01*
G04 APERTURE LIST*
%ADD10C,1.500000*%
%ADD11O,1.500000X1.500000*%
%ADD12O,1.800000X1.800000*%
%ADD13O,1.700000X1.700000*%
%ADD14R,1.700000X1.700000*%
%ADD15O,1.300000X2.000000*%
G04 APERTURE END LIST*
D10*
%TO.C,5V1*%
X140970000Y-132080000D03*
X138430000Y-132080000D03*
X135890000Y-132080000D03*
X133350000Y-132080000D03*
%TD*%
%TO.C,stepper2*%
X109220000Y-114300000D03*
X109220000Y-116840000D03*
X109220000Y-119380000D03*
X109220000Y-121920000D03*
%TD*%
D11*
%TO.C,Rasberry_Pi_Pico_1*%
X127375000Y-74630000D03*
D12*
X127075000Y-71600000D03*
X132525000Y-71600000D03*
D11*
X132225000Y-74630000D03*
D13*
X120910000Y-71470000D03*
X120910000Y-74010000D03*
D14*
X120910000Y-76550000D03*
D13*
X120910000Y-79090000D03*
X120910000Y-81630000D03*
X120910000Y-84170000D03*
X120910000Y-86710000D03*
D14*
X120910000Y-89250000D03*
D13*
X120910000Y-91790000D03*
X120910000Y-94330000D03*
X120910000Y-96870000D03*
X120910000Y-99410000D03*
D14*
X120910000Y-101950000D03*
D13*
X120910000Y-104490000D03*
X120910000Y-107030000D03*
X120910000Y-109570000D03*
X120910000Y-112110000D03*
D14*
X120910000Y-114650000D03*
D13*
X120910000Y-117190000D03*
X120910000Y-119730000D03*
X138690000Y-119730000D03*
X138690000Y-117190000D03*
D14*
X138690000Y-114650000D03*
D13*
X138690000Y-112110000D03*
X138690000Y-109570000D03*
X138690000Y-107030000D03*
X138690000Y-104490000D03*
D14*
X138690000Y-101950000D03*
D13*
X138690000Y-99410000D03*
X138690000Y-96870000D03*
X138690000Y-94330000D03*
X138690000Y-91790000D03*
D14*
X138690000Y-89250000D03*
D13*
X138690000Y-86710000D03*
X138690000Y-84170000D03*
X138690000Y-81630000D03*
X138690000Y-79090000D03*
D14*
X138690000Y-76550000D03*
D13*
X138690000Y-74010000D03*
X138690000Y-71470000D03*
X127260000Y-119500000D03*
D14*
X129800000Y-119500000D03*
D13*
X132340000Y-119500000D03*
%TD*%
D10*
%TO.C,stepper3*%
X113030000Y-132080000D03*
X110490000Y-132080000D03*
X107950000Y-132080000D03*
X105410000Y-132080000D03*
%TD*%
%TO.C,GND1*%
X127000000Y-132080000D03*
X124460000Y-132080000D03*
X121920000Y-132080000D03*
X119380000Y-132080000D03*
%TD*%
%TO.C,stepper1*%
X109220000Y-102870000D03*
X109220000Y-105410000D03*
X109220000Y-107950000D03*
X109220000Y-110490000D03*
%TD*%
%TO.C,\u6447\u6746\u7535\u4F4D\u56682*%
X154980000Y-110330000D03*
X157480000Y-110330000D03*
X159980000Y-110330000D03*
D15*
X150730000Y-93580000D03*
X164230000Y-93580000D03*
X164230000Y-107080000D03*
X150730000Y-107080000D03*
%TD*%
D10*
%TO.C,\u6447\u6746\u7535\u4F4D\u56681*%
X154980000Y-87470000D03*
X157480000Y-87470000D03*
X159980000Y-87470000D03*
D15*
X164230000Y-70720000D03*
X164230000Y-84220000D03*
X150730000Y-70720000D03*
X150730000Y-84220000D03*
%TD*%
D10*
%TO.C,\u6447\u6746\u7535\u4F4D\u56683*%
X154980000Y-133190000D03*
X157480000Y-133190000D03*
X159980000Y-133190000D03*
D15*
X150730000Y-116440000D03*
X150730000Y-129940000D03*
X164230000Y-116440000D03*
X164230000Y-129940000D03*
%TD*%
M02*
