%TF.GenerationSoftware,KiCad,Pcbnew,(6.0.1)*%
%TF.CreationDate,2022-02-13T21:33:51+08:00*%
%TF.ProjectId,PCB-1.0,5043422d-312e-4302-9e6b-696361645f70,rev?*%
%TF.SameCoordinates,Original*%
%TF.FileFunction,Legend,Top*%
%TF.FilePolarity,Positive*%
%FSLAX46Y46*%
G04 Gerber Fmt 4.6, Leading zero omitted, Abs format (unit mm)*
G04 Created by KiCad (PCBNEW (6.0.1)) date 2022-02-13 21:33:51*
%MOMM*%
%LPD*%
G01*
G04 APERTURE LIST*
%ADD10C,0.150000*%
%ADD11C,0.120000*%
G04 APERTURE END LIST*
D10*
%TO.C,E28_2G4T12S_1*%
X96073333Y-99378571D02*
X96406666Y-99378571D01*
X96549523Y-99902380D02*
X96073333Y-99902380D01*
X96073333Y-98902380D01*
X96549523Y-98902380D01*
X96930476Y-98997619D02*
X96978095Y-98950000D01*
X97073333Y-98902380D01*
X97311428Y-98902380D01*
X97406666Y-98950000D01*
X97454285Y-98997619D01*
X97501904Y-99092857D01*
X97501904Y-99188095D01*
X97454285Y-99330952D01*
X96882857Y-99902380D01*
X97501904Y-99902380D01*
X98073333Y-99330952D02*
X97978095Y-99283333D01*
X97930476Y-99235714D01*
X97882857Y-99140476D01*
X97882857Y-99092857D01*
X97930476Y-98997619D01*
X97978095Y-98950000D01*
X98073333Y-98902380D01*
X98263809Y-98902380D01*
X98359047Y-98950000D01*
X98406666Y-98997619D01*
X98454285Y-99092857D01*
X98454285Y-99140476D01*
X98406666Y-99235714D01*
X98359047Y-99283333D01*
X98263809Y-99330952D01*
X98073333Y-99330952D01*
X97978095Y-99378571D01*
X97930476Y-99426190D01*
X97882857Y-99521428D01*
X97882857Y-99711904D01*
X97930476Y-99807142D01*
X97978095Y-99854761D01*
X98073333Y-99902380D01*
X98263809Y-99902380D01*
X98359047Y-99854761D01*
X98406666Y-99807142D01*
X98454285Y-99711904D01*
X98454285Y-99521428D01*
X98406666Y-99426190D01*
X98359047Y-99378571D01*
X98263809Y-99330952D01*
X98644761Y-99997619D02*
X99406666Y-99997619D01*
X99597142Y-98997619D02*
X99644761Y-98950000D01*
X99740000Y-98902380D01*
X99978095Y-98902380D01*
X100073333Y-98950000D01*
X100120952Y-98997619D01*
X100168571Y-99092857D01*
X100168571Y-99188095D01*
X100120952Y-99330952D01*
X99549523Y-99902380D01*
X100168571Y-99902380D01*
X101120952Y-98950000D02*
X101025714Y-98902380D01*
X100882857Y-98902380D01*
X100740000Y-98950000D01*
X100644761Y-99045238D01*
X100597142Y-99140476D01*
X100549523Y-99330952D01*
X100549523Y-99473809D01*
X100597142Y-99664285D01*
X100644761Y-99759523D01*
X100740000Y-99854761D01*
X100882857Y-99902380D01*
X100978095Y-99902380D01*
X101120952Y-99854761D01*
X101168571Y-99807142D01*
X101168571Y-99473809D01*
X100978095Y-99473809D01*
X102025714Y-99235714D02*
X102025714Y-99902380D01*
X101787619Y-98854761D02*
X101549523Y-99569047D01*
X102168571Y-99569047D01*
X102406666Y-98902380D02*
X102978095Y-98902380D01*
X102692380Y-99902380D02*
X102692380Y-98902380D01*
X103835238Y-99902380D02*
X103263809Y-99902380D01*
X103549523Y-99902380D02*
X103549523Y-98902380D01*
X103454285Y-99045238D01*
X103359047Y-99140476D01*
X103263809Y-99188095D01*
X104216190Y-98997619D02*
X104263809Y-98950000D01*
X104359047Y-98902380D01*
X104597142Y-98902380D01*
X104692380Y-98950000D01*
X104740000Y-98997619D01*
X104787619Y-99092857D01*
X104787619Y-99188095D01*
X104740000Y-99330952D01*
X104168571Y-99902380D01*
X104787619Y-99902380D01*
X105168571Y-99854761D02*
X105311428Y-99902380D01*
X105549523Y-99902380D01*
X105644761Y-99854761D01*
X105692380Y-99807142D01*
X105740000Y-99711904D01*
X105740000Y-99616666D01*
X105692380Y-99521428D01*
X105644761Y-99473809D01*
X105549523Y-99426190D01*
X105359047Y-99378571D01*
X105263809Y-99330952D01*
X105216190Y-99283333D01*
X105168571Y-99188095D01*
X105168571Y-99092857D01*
X105216190Y-98997619D01*
X105263809Y-98950000D01*
X105359047Y-98902380D01*
X105597142Y-98902380D01*
X105740000Y-98950000D01*
X105930476Y-99997619D02*
X106692380Y-99997619D01*
X107454285Y-99902380D02*
X106882857Y-99902380D01*
X107168571Y-99902380D02*
X107168571Y-98902380D01*
X107073333Y-99045238D01*
X106978095Y-99140476D01*
X106882857Y-99188095D01*
%TO.C,5V1*%
X136493333Y-129282380D02*
X136017142Y-129282380D01*
X135969523Y-129758571D01*
X136017142Y-129710952D01*
X136112380Y-129663333D01*
X136350476Y-129663333D01*
X136445714Y-129710952D01*
X136493333Y-129758571D01*
X136540952Y-129853809D01*
X136540952Y-130091904D01*
X136493333Y-130187142D01*
X136445714Y-130234761D01*
X136350476Y-130282380D01*
X136112380Y-130282380D01*
X136017142Y-130234761D01*
X135969523Y-130187142D01*
X136826666Y-129282380D02*
X137160000Y-130282380D01*
X137493333Y-129282380D01*
X138350476Y-130282380D02*
X137779047Y-130282380D01*
X138064761Y-130282380D02*
X138064761Y-129282380D01*
X137969523Y-129425238D01*
X137874285Y-129520476D01*
X137779047Y-129568095D01*
%TO.C,stepper2*%
X107374761Y-121157619D02*
X107422380Y-121062380D01*
X107422380Y-120871904D01*
X107374761Y-120776666D01*
X107279523Y-120729047D01*
X107231904Y-120729047D01*
X107136666Y-120776666D01*
X107089047Y-120871904D01*
X107089047Y-121014761D01*
X107041428Y-121110000D01*
X106946190Y-121157619D01*
X106898571Y-121157619D01*
X106803333Y-121110000D01*
X106755714Y-121014761D01*
X106755714Y-120871904D01*
X106803333Y-120776666D01*
X106755714Y-120443333D02*
X106755714Y-120062380D01*
X106422380Y-120300476D02*
X107279523Y-120300476D01*
X107374761Y-120252857D01*
X107422380Y-120157619D01*
X107422380Y-120062380D01*
X107374761Y-119348095D02*
X107422380Y-119443333D01*
X107422380Y-119633809D01*
X107374761Y-119729047D01*
X107279523Y-119776666D01*
X106898571Y-119776666D01*
X106803333Y-119729047D01*
X106755714Y-119633809D01*
X106755714Y-119443333D01*
X106803333Y-119348095D01*
X106898571Y-119300476D01*
X106993809Y-119300476D01*
X107089047Y-119776666D01*
X106755714Y-118871904D02*
X107755714Y-118871904D01*
X106803333Y-118871904D02*
X106755714Y-118776666D01*
X106755714Y-118586190D01*
X106803333Y-118490952D01*
X106850952Y-118443333D01*
X106946190Y-118395714D01*
X107231904Y-118395714D01*
X107327142Y-118443333D01*
X107374761Y-118490952D01*
X107422380Y-118586190D01*
X107422380Y-118776666D01*
X107374761Y-118871904D01*
X106755714Y-117967142D02*
X107755714Y-117967142D01*
X106803333Y-117967142D02*
X106755714Y-117871904D01*
X106755714Y-117681428D01*
X106803333Y-117586190D01*
X106850952Y-117538571D01*
X106946190Y-117490952D01*
X107231904Y-117490952D01*
X107327142Y-117538571D01*
X107374761Y-117586190D01*
X107422380Y-117681428D01*
X107422380Y-117871904D01*
X107374761Y-117967142D01*
X107374761Y-116681428D02*
X107422380Y-116776666D01*
X107422380Y-116967142D01*
X107374761Y-117062380D01*
X107279523Y-117110000D01*
X106898571Y-117110000D01*
X106803333Y-117062380D01*
X106755714Y-116967142D01*
X106755714Y-116776666D01*
X106803333Y-116681428D01*
X106898571Y-116633809D01*
X106993809Y-116633809D01*
X107089047Y-117110000D01*
X107422380Y-116205238D02*
X106755714Y-116205238D01*
X106946190Y-116205238D02*
X106850952Y-116157619D01*
X106803333Y-116110000D01*
X106755714Y-116014761D01*
X106755714Y-115919523D01*
X106517619Y-115633809D02*
X106470000Y-115586190D01*
X106422380Y-115490952D01*
X106422380Y-115252857D01*
X106470000Y-115157619D01*
X106517619Y-115110000D01*
X106612857Y-115062380D01*
X106708095Y-115062380D01*
X106850952Y-115110000D01*
X107422380Y-115681428D01*
X107422380Y-115062380D01*
%TO.C,Rasberry_Pi_Pico_1*%
X129236380Y-103020761D02*
X128760190Y-103354095D01*
X129236380Y-103592190D02*
X128236380Y-103592190D01*
X128236380Y-103211238D01*
X128284000Y-103116000D01*
X128331619Y-103068380D01*
X128426857Y-103020761D01*
X128569714Y-103020761D01*
X128664952Y-103068380D01*
X128712571Y-103116000D01*
X128760190Y-103211238D01*
X128760190Y-103592190D01*
X129236380Y-102163619D02*
X128712571Y-102163619D01*
X128617333Y-102211238D01*
X128569714Y-102306476D01*
X128569714Y-102496952D01*
X128617333Y-102592190D01*
X129188761Y-102163619D02*
X129236380Y-102258857D01*
X129236380Y-102496952D01*
X129188761Y-102592190D01*
X129093523Y-102639809D01*
X128998285Y-102639809D01*
X128903047Y-102592190D01*
X128855428Y-102496952D01*
X128855428Y-102258857D01*
X128807809Y-102163619D01*
X129188761Y-101735047D02*
X129236380Y-101639809D01*
X129236380Y-101449333D01*
X129188761Y-101354095D01*
X129093523Y-101306476D01*
X129045904Y-101306476D01*
X128950666Y-101354095D01*
X128903047Y-101449333D01*
X128903047Y-101592190D01*
X128855428Y-101687428D01*
X128760190Y-101735047D01*
X128712571Y-101735047D01*
X128617333Y-101687428D01*
X128569714Y-101592190D01*
X128569714Y-101449333D01*
X128617333Y-101354095D01*
X129236380Y-100877904D02*
X128236380Y-100877904D01*
X128617333Y-100877904D02*
X128569714Y-100782666D01*
X128569714Y-100592190D01*
X128617333Y-100496952D01*
X128664952Y-100449333D01*
X128760190Y-100401714D01*
X129045904Y-100401714D01*
X129141142Y-100449333D01*
X129188761Y-100496952D01*
X129236380Y-100592190D01*
X129236380Y-100782666D01*
X129188761Y-100877904D01*
X129188761Y-99592190D02*
X129236380Y-99687428D01*
X129236380Y-99877904D01*
X129188761Y-99973142D01*
X129093523Y-100020761D01*
X128712571Y-100020761D01*
X128617333Y-99973142D01*
X128569714Y-99877904D01*
X128569714Y-99687428D01*
X128617333Y-99592190D01*
X128712571Y-99544571D01*
X128807809Y-99544571D01*
X128903047Y-100020761D01*
X129236380Y-99116000D02*
X128569714Y-99116000D01*
X128760190Y-99116000D02*
X128664952Y-99068380D01*
X128617333Y-99020761D01*
X128569714Y-98925523D01*
X128569714Y-98830285D01*
X129236380Y-98496952D02*
X128569714Y-98496952D01*
X128760190Y-98496952D02*
X128664952Y-98449333D01*
X128617333Y-98401714D01*
X128569714Y-98306476D01*
X128569714Y-98211238D01*
X128569714Y-97973142D02*
X129236380Y-97735047D01*
X128569714Y-97496952D02*
X129236380Y-97735047D01*
X129474476Y-97830285D01*
X129522095Y-97877904D01*
X129569714Y-97973142D01*
X129331619Y-97354095D02*
X129331619Y-96592190D01*
X129236380Y-96354095D02*
X128236380Y-96354095D01*
X128236380Y-95973142D01*
X128284000Y-95877904D01*
X128331619Y-95830285D01*
X128426857Y-95782666D01*
X128569714Y-95782666D01*
X128664952Y-95830285D01*
X128712571Y-95877904D01*
X128760190Y-95973142D01*
X128760190Y-96354095D01*
X129236380Y-95354095D02*
X128569714Y-95354095D01*
X128236380Y-95354095D02*
X128284000Y-95401714D01*
X128331619Y-95354095D01*
X128284000Y-95306476D01*
X128236380Y-95354095D01*
X128331619Y-95354095D01*
X129331619Y-95116000D02*
X129331619Y-94354095D01*
X129236380Y-94116000D02*
X128236380Y-94116000D01*
X128236380Y-93735047D01*
X128284000Y-93639809D01*
X128331619Y-93592190D01*
X128426857Y-93544571D01*
X128569714Y-93544571D01*
X128664952Y-93592190D01*
X128712571Y-93639809D01*
X128760190Y-93735047D01*
X128760190Y-94116000D01*
X129236380Y-93116000D02*
X128569714Y-93116000D01*
X128236380Y-93116000D02*
X128284000Y-93163619D01*
X128331619Y-93116000D01*
X128284000Y-93068380D01*
X128236380Y-93116000D01*
X128331619Y-93116000D01*
X129188761Y-92211238D02*
X129236380Y-92306476D01*
X129236380Y-92496952D01*
X129188761Y-92592190D01*
X129141142Y-92639809D01*
X129045904Y-92687428D01*
X128760190Y-92687428D01*
X128664952Y-92639809D01*
X128617333Y-92592190D01*
X128569714Y-92496952D01*
X128569714Y-92306476D01*
X128617333Y-92211238D01*
X129236380Y-91639809D02*
X129188761Y-91735047D01*
X129141142Y-91782666D01*
X129045904Y-91830285D01*
X128760190Y-91830285D01*
X128664952Y-91782666D01*
X128617333Y-91735047D01*
X128569714Y-91639809D01*
X128569714Y-91496952D01*
X128617333Y-91401714D01*
X128664952Y-91354095D01*
X128760190Y-91306476D01*
X129045904Y-91306476D01*
X129141142Y-91354095D01*
X129188761Y-91401714D01*
X129236380Y-91496952D01*
X129236380Y-91639809D01*
X129331619Y-91116000D02*
X129331619Y-90354095D01*
X129236380Y-89592190D02*
X129236380Y-90163619D01*
X129236380Y-89877904D02*
X128236380Y-89877904D01*
X128379238Y-89973142D01*
X128474476Y-90068380D01*
X128522095Y-90163619D01*
X141722131Y-79558308D02*
X142072317Y-79208122D01*
X142099255Y-79612183D01*
X142180067Y-79531370D01*
X142260879Y-79504433D01*
X142314754Y-79504433D01*
X142395566Y-79531370D01*
X142530253Y-79666057D01*
X142557190Y-79746870D01*
X142557190Y-79800744D01*
X142530253Y-79881557D01*
X142368629Y-80043181D01*
X142287816Y-80070118D01*
X142233942Y-80070118D01*
X142233942Y-79046497D02*
X142988189Y-79423621D01*
X142611065Y-78669374D01*
X142745752Y-78534687D02*
X143095938Y-78184500D01*
X143122876Y-78588561D01*
X143203688Y-78507749D01*
X143284500Y-78480812D01*
X143338375Y-78480812D01*
X143419187Y-78507749D01*
X143553874Y-78642436D01*
X143580812Y-78723248D01*
X143580812Y-78777123D01*
X143553874Y-78857935D01*
X143392250Y-79019560D01*
X143311438Y-79046497D01*
X143257563Y-79046497D01*
X143823248Y-78696311D02*
X144254247Y-78265312D01*
X144038748Y-77780439D02*
X144227309Y-77591877D01*
X144604433Y-77807377D02*
X144335059Y-78076751D01*
X143769374Y-77511065D01*
X144038748Y-77241691D01*
X144846870Y-77564940D02*
X144281184Y-76999255D01*
X145170118Y-77241691D01*
X144604433Y-76676006D01*
X116313096Y-81751218D02*
X116232284Y-81778155D01*
X116151471Y-81858967D01*
X116097597Y-81966717D01*
X116097597Y-82074467D01*
X116124534Y-82155279D01*
X116205346Y-82289966D01*
X116286158Y-82370778D01*
X116420845Y-82451590D01*
X116501658Y-82478528D01*
X116609407Y-82478528D01*
X116717157Y-82424653D01*
X116771032Y-82370778D01*
X116824906Y-82263028D01*
X116824906Y-82209154D01*
X116636345Y-82020592D01*
X116528595Y-82128341D01*
X117121218Y-82020592D02*
X116555532Y-81454906D01*
X116771032Y-81239407D01*
X116851844Y-81212470D01*
X116905719Y-81212470D01*
X116986531Y-81239407D01*
X117067343Y-81320219D01*
X117094280Y-81401032D01*
X117094280Y-81454906D01*
X117067343Y-81535719D01*
X116851844Y-81751218D01*
X117067343Y-80943096D02*
X117417529Y-80592910D01*
X117444467Y-80996971D01*
X117525279Y-80916158D01*
X117606091Y-80889221D01*
X117659966Y-80889221D01*
X117740778Y-80916158D01*
X117875465Y-81050845D01*
X117902402Y-81131658D01*
X117902402Y-81185532D01*
X117875465Y-81266345D01*
X117713841Y-81427969D01*
X117633028Y-81454906D01*
X117579154Y-81454906D01*
X115789722Y-112500592D02*
X115708910Y-112527529D01*
X115628097Y-112608341D01*
X115574223Y-112716091D01*
X115574223Y-112823841D01*
X115601160Y-112904653D01*
X115681972Y-113039340D01*
X115762784Y-113120152D01*
X115897471Y-113200964D01*
X115978284Y-113227902D01*
X116086033Y-113227902D01*
X116193783Y-113174027D01*
X116247658Y-113120152D01*
X116301532Y-113012402D01*
X116301532Y-112958528D01*
X116112971Y-112769966D01*
X116005221Y-112877715D01*
X116597844Y-112769966D02*
X116032158Y-112204280D01*
X116247658Y-111988781D01*
X116328470Y-111961844D01*
X116382345Y-111961844D01*
X116463157Y-111988781D01*
X116543969Y-112069593D01*
X116570906Y-112150406D01*
X116570906Y-112204280D01*
X116543969Y-112285093D01*
X116328470Y-112500592D01*
X117459841Y-111907969D02*
X117136592Y-112231218D01*
X117298216Y-112069593D02*
X116732531Y-111503908D01*
X116759468Y-111638595D01*
X116759468Y-111746345D01*
X116732531Y-111827157D01*
X117082717Y-111153722D02*
X117432903Y-110803536D01*
X117459841Y-111207597D01*
X117540653Y-111126784D01*
X117621465Y-111099847D01*
X117675340Y-111099847D01*
X117756152Y-111126784D01*
X117890839Y-111261471D01*
X117917776Y-111342284D01*
X117917776Y-111396158D01*
X117890839Y-111476971D01*
X117729215Y-111638595D01*
X117648402Y-111665532D01*
X117594528Y-111665532D01*
X115643722Y-109960592D02*
X115562910Y-109987529D01*
X115482097Y-110068341D01*
X115428223Y-110176091D01*
X115428223Y-110283841D01*
X115455160Y-110364653D01*
X115535972Y-110499340D01*
X115616784Y-110580152D01*
X115751471Y-110660964D01*
X115832284Y-110687902D01*
X115940033Y-110687902D01*
X116047783Y-110634027D01*
X116101658Y-110580152D01*
X116155532Y-110472402D01*
X116155532Y-110418528D01*
X115966971Y-110229966D01*
X115859221Y-110337715D01*
X116451844Y-110229966D02*
X115886158Y-109664280D01*
X116101658Y-109448781D01*
X116182470Y-109421844D01*
X116236345Y-109421844D01*
X116317157Y-109448781D01*
X116397969Y-109529593D01*
X116424906Y-109610406D01*
X116424906Y-109664280D01*
X116397969Y-109745093D01*
X116182470Y-109960592D01*
X117313841Y-109367969D02*
X116990592Y-109691218D01*
X117152216Y-109529593D02*
X116586531Y-108963908D01*
X116613468Y-109098595D01*
X116613468Y-109206345D01*
X116586531Y-109287157D01*
X117017529Y-108640659D02*
X117017529Y-108586784D01*
X117044467Y-108505972D01*
X117179154Y-108371285D01*
X117259966Y-108344348D01*
X117313841Y-108344348D01*
X117394653Y-108371285D01*
X117448528Y-108425160D01*
X117502402Y-108532910D01*
X117502402Y-109179407D01*
X117852589Y-108829221D01*
X141954788Y-85133773D02*
X142224162Y-84864399D01*
X142062537Y-85349272D02*
X141685414Y-84595025D01*
X142439661Y-84972149D01*
X142628223Y-84783587D02*
X142062537Y-84217902D01*
X142197224Y-84083215D01*
X142304974Y-84029340D01*
X142412723Y-84029340D01*
X142493536Y-84056277D01*
X142628223Y-84137089D01*
X142709035Y-84217902D01*
X142789847Y-84352589D01*
X142816784Y-84433401D01*
X142816784Y-84541150D01*
X142762910Y-84648900D01*
X142628223Y-84783587D01*
X143463282Y-83840778D02*
X143463282Y-83894653D01*
X143409407Y-84002402D01*
X143355532Y-84056277D01*
X143247783Y-84110152D01*
X143140033Y-84110152D01*
X143059221Y-84083215D01*
X142924534Y-84002402D01*
X142843722Y-83921590D01*
X142762910Y-83786903D01*
X142735972Y-83706091D01*
X142735972Y-83598341D01*
X142789847Y-83490592D01*
X142843722Y-83436717D01*
X142951471Y-83382842D01*
X143005346Y-83382842D01*
X143678781Y-83840778D02*
X144109780Y-83409780D01*
X143544094Y-82736345D02*
X144298341Y-83113468D01*
X143921218Y-82359221D01*
X144998714Y-82413096D02*
X144540778Y-82332284D01*
X144675465Y-82736345D02*
X144109780Y-82170659D01*
X144325279Y-81955160D01*
X144406091Y-81928223D01*
X144459966Y-81928223D01*
X144540778Y-81955160D01*
X144621590Y-82035972D01*
X144648528Y-82116784D01*
X144648528Y-82170659D01*
X144621590Y-82251471D01*
X144406091Y-82466971D01*
X144944839Y-81874348D02*
X145133401Y-81685786D01*
X145510524Y-81901285D02*
X145241150Y-82170659D01*
X144675465Y-81604974D01*
X144944839Y-81335600D01*
X145645211Y-81173975D02*
X145456650Y-81362537D01*
X145752961Y-81658849D02*
X145187276Y-81093163D01*
X145456650Y-80823789D01*
X116286158Y-114798155D02*
X116205346Y-114825093D01*
X116124534Y-114905905D01*
X116070659Y-115013654D01*
X116070659Y-115121404D01*
X116097597Y-115202216D01*
X116178409Y-115336903D01*
X116259221Y-115417715D01*
X116393908Y-115498528D01*
X116474720Y-115525465D01*
X116582470Y-115525465D01*
X116690219Y-115471590D01*
X116744094Y-115417715D01*
X116797969Y-115309966D01*
X116797969Y-115256091D01*
X116609407Y-115067529D01*
X116501658Y-115175279D01*
X117094280Y-115067529D02*
X116528595Y-114501844D01*
X117417529Y-114744280D01*
X116851844Y-114178595D01*
X117686903Y-114474906D02*
X117121218Y-113909221D01*
X117255905Y-113774534D01*
X117363654Y-113720659D01*
X117471404Y-113720659D01*
X117552216Y-113747597D01*
X117686903Y-113828409D01*
X117767715Y-113909221D01*
X117848528Y-114043908D01*
X117875465Y-114124720D01*
X117875465Y-114232470D01*
X117821590Y-114340219D01*
X117686903Y-114474906D01*
X141897722Y-112500592D02*
X141816910Y-112527529D01*
X141736097Y-112608341D01*
X141682223Y-112716091D01*
X141682223Y-112823841D01*
X141709160Y-112904653D01*
X141789972Y-113039340D01*
X141870784Y-113120152D01*
X142005471Y-113200964D01*
X142086284Y-113227902D01*
X142194033Y-113227902D01*
X142301783Y-113174027D01*
X142355658Y-113120152D01*
X142409532Y-113012402D01*
X142409532Y-112958528D01*
X142220971Y-112769966D01*
X142113221Y-112877715D01*
X142705844Y-112769966D02*
X142140158Y-112204280D01*
X142355658Y-111988781D01*
X142436470Y-111961844D01*
X142490345Y-111961844D01*
X142571157Y-111988781D01*
X142651969Y-112069593D01*
X142678906Y-112150406D01*
X142678906Y-112204280D01*
X142651969Y-112285093D01*
X142436470Y-112500592D01*
X143567841Y-111907969D02*
X143244592Y-112231218D01*
X143406216Y-112069593D02*
X142840531Y-111503908D01*
X142867468Y-111638595D01*
X142867468Y-111746345D01*
X142840531Y-111827157D01*
X143567841Y-111261471D02*
X143487028Y-111288409D01*
X143433154Y-111288409D01*
X143352341Y-111261471D01*
X143325404Y-111234534D01*
X143298467Y-111153722D01*
X143298467Y-111099847D01*
X143325404Y-111019035D01*
X143433154Y-110911285D01*
X143513966Y-110884348D01*
X143567841Y-110884348D01*
X143648653Y-110911285D01*
X143675590Y-110938223D01*
X143702528Y-111019035D01*
X143702528Y-111072910D01*
X143675590Y-111153722D01*
X143567841Y-111261471D01*
X143540903Y-111342284D01*
X143540903Y-111396158D01*
X143567841Y-111476971D01*
X143675590Y-111584720D01*
X143756402Y-111611658D01*
X143810277Y-111611658D01*
X143891089Y-111584720D01*
X143998839Y-111476971D01*
X144025776Y-111396158D01*
X144025776Y-111342284D01*
X143998839Y-111261471D01*
X143891089Y-111153722D01*
X143810277Y-111126784D01*
X143756402Y-111126784D01*
X143675590Y-111153722D01*
X141886158Y-102098155D02*
X141805346Y-102125093D01*
X141724534Y-102205905D01*
X141670659Y-102313654D01*
X141670659Y-102421404D01*
X141697597Y-102502216D01*
X141778409Y-102636903D01*
X141859221Y-102717715D01*
X141993908Y-102798528D01*
X142074720Y-102825465D01*
X142182470Y-102825465D01*
X142290219Y-102771590D01*
X142344094Y-102717715D01*
X142397969Y-102609966D01*
X142397969Y-102556091D01*
X142209407Y-102367529D01*
X142101658Y-102475279D01*
X142694280Y-102367529D02*
X142128595Y-101801844D01*
X143017529Y-102044280D01*
X142451844Y-101478595D01*
X143286903Y-101774906D02*
X142721218Y-101209221D01*
X142855905Y-101074534D01*
X142963654Y-101020659D01*
X143071404Y-101020659D01*
X143152216Y-101047597D01*
X143286903Y-101128409D01*
X143367715Y-101209221D01*
X143448528Y-101343908D01*
X143475465Y-101424720D01*
X143475465Y-101532470D01*
X143421590Y-101640219D01*
X143286903Y-101774906D01*
X133704761Y-122123809D02*
X133819047Y-122161904D01*
X134009523Y-122161904D01*
X134085714Y-122123809D01*
X134123809Y-122085714D01*
X134161904Y-122009523D01*
X134161904Y-121933333D01*
X134123809Y-121857142D01*
X134085714Y-121819047D01*
X134009523Y-121780952D01*
X133857142Y-121742857D01*
X133780952Y-121704761D01*
X133742857Y-121666666D01*
X133704761Y-121590476D01*
X133704761Y-121514285D01*
X133742857Y-121438095D01*
X133780952Y-121400000D01*
X133857142Y-121361904D01*
X134047619Y-121361904D01*
X134161904Y-121400000D01*
X134428571Y-121361904D02*
X134619047Y-122161904D01*
X134771428Y-121590476D01*
X134923809Y-122161904D01*
X135114285Y-121361904D01*
X135419047Y-122161904D02*
X135419047Y-121361904D01*
X135609523Y-121361904D01*
X135723809Y-121400000D01*
X135800000Y-121476190D01*
X135838095Y-121552380D01*
X135876190Y-121704761D01*
X135876190Y-121819047D01*
X135838095Y-121971428D01*
X135800000Y-122047619D01*
X135723809Y-122123809D01*
X135609523Y-122161904D01*
X135419047Y-122161904D01*
X136219047Y-122161904D02*
X136219047Y-121361904D01*
X136752380Y-121361904D02*
X136904761Y-121361904D01*
X136980952Y-121400000D01*
X137057142Y-121476190D01*
X137095238Y-121628571D01*
X137095238Y-121895238D01*
X137057142Y-122047619D01*
X136980952Y-122123809D01*
X136904761Y-122161904D01*
X136752380Y-122161904D01*
X136676190Y-122123809D01*
X136600000Y-122047619D01*
X136561904Y-121895238D01*
X136561904Y-121628571D01*
X136600000Y-121476190D01*
X136676190Y-121400000D01*
X136752380Y-121361904D01*
X122290476Y-122123809D02*
X122404761Y-122161904D01*
X122595238Y-122161904D01*
X122671428Y-122123809D01*
X122709523Y-122085714D01*
X122747619Y-122009523D01*
X122747619Y-121933333D01*
X122709523Y-121857142D01*
X122671428Y-121819047D01*
X122595238Y-121780952D01*
X122442857Y-121742857D01*
X122366666Y-121704761D01*
X122328571Y-121666666D01*
X122290476Y-121590476D01*
X122290476Y-121514285D01*
X122328571Y-121438095D01*
X122366666Y-121400000D01*
X122442857Y-121361904D01*
X122633333Y-121361904D01*
X122747619Y-121400000D01*
X123014285Y-121361904D02*
X123204761Y-122161904D01*
X123357142Y-121590476D01*
X123509523Y-122161904D01*
X123700000Y-121361904D01*
X124461904Y-122085714D02*
X124423809Y-122123809D01*
X124309523Y-122161904D01*
X124233333Y-122161904D01*
X124119047Y-122123809D01*
X124042857Y-122047619D01*
X124004761Y-121971428D01*
X123966666Y-121819047D01*
X123966666Y-121704761D01*
X124004761Y-121552380D01*
X124042857Y-121476190D01*
X124119047Y-121400000D01*
X124233333Y-121361904D01*
X124309523Y-121361904D01*
X124423809Y-121400000D01*
X124461904Y-121438095D01*
X125185714Y-122161904D02*
X124804761Y-122161904D01*
X124804761Y-121361904D01*
X125452380Y-122161904D02*
X125452380Y-121361904D01*
X125909523Y-122161904D02*
X125566666Y-121704761D01*
X125909523Y-121361904D02*
X125452380Y-121819047D01*
X116313096Y-96991218D02*
X116232284Y-97018155D01*
X116151471Y-97098967D01*
X116097597Y-97206717D01*
X116097597Y-97314467D01*
X116124534Y-97395279D01*
X116205346Y-97529966D01*
X116286158Y-97610778D01*
X116420845Y-97691590D01*
X116501658Y-97718528D01*
X116609407Y-97718528D01*
X116717157Y-97664653D01*
X116771032Y-97610778D01*
X116824906Y-97503028D01*
X116824906Y-97449154D01*
X116636345Y-97260592D01*
X116528595Y-97368341D01*
X117121218Y-97260592D02*
X116555532Y-96694906D01*
X116771032Y-96479407D01*
X116851844Y-96452470D01*
X116905719Y-96452470D01*
X116986531Y-96479407D01*
X117067343Y-96560219D01*
X117094280Y-96641032D01*
X117094280Y-96694906D01*
X117067343Y-96775719D01*
X116851844Y-96991218D01*
X117444467Y-96290845D02*
X117363654Y-96317783D01*
X117309780Y-96317783D01*
X117228967Y-96290845D01*
X117202030Y-96263908D01*
X117175093Y-96183096D01*
X117175093Y-96129221D01*
X117202030Y-96048409D01*
X117309780Y-95940659D01*
X117390592Y-95913722D01*
X117444467Y-95913722D01*
X117525279Y-95940659D01*
X117552216Y-95967597D01*
X117579154Y-96048409D01*
X117579154Y-96102284D01*
X117552216Y-96183096D01*
X117444467Y-96290845D01*
X117417529Y-96371658D01*
X117417529Y-96425532D01*
X117444467Y-96506345D01*
X117552216Y-96614094D01*
X117633028Y-96641032D01*
X117686903Y-96641032D01*
X117767715Y-96614094D01*
X117875465Y-96506345D01*
X117902402Y-96425532D01*
X117902402Y-96371658D01*
X117875465Y-96290845D01*
X117767715Y-96183096D01*
X117686903Y-96156158D01*
X117633028Y-96156158D01*
X117552216Y-96183096D01*
X141886158Y-114798155D02*
X141805346Y-114825093D01*
X141724534Y-114905905D01*
X141670659Y-115013654D01*
X141670659Y-115121404D01*
X141697597Y-115202216D01*
X141778409Y-115336903D01*
X141859221Y-115417715D01*
X141993908Y-115498528D01*
X142074720Y-115525465D01*
X142182470Y-115525465D01*
X142290219Y-115471590D01*
X142344094Y-115417715D01*
X142397969Y-115309966D01*
X142397969Y-115256091D01*
X142209407Y-115067529D01*
X142101658Y-115175279D01*
X142694280Y-115067529D02*
X142128595Y-114501844D01*
X143017529Y-114744280D01*
X142451844Y-114178595D01*
X143286903Y-114474906D02*
X142721218Y-113909221D01*
X142855905Y-113774534D01*
X142963654Y-113720659D01*
X143071404Y-113720659D01*
X143152216Y-113747597D01*
X143286903Y-113828409D01*
X143367715Y-113909221D01*
X143448528Y-114043908D01*
X143475465Y-114124720D01*
X143475465Y-114232470D01*
X143421590Y-114340219D01*
X143286903Y-114474906D01*
X116286158Y-76698155D02*
X116205346Y-76725093D01*
X116124534Y-76805905D01*
X116070659Y-76913654D01*
X116070659Y-77021404D01*
X116097597Y-77102216D01*
X116178409Y-77236903D01*
X116259221Y-77317715D01*
X116393908Y-77398528D01*
X116474720Y-77425465D01*
X116582470Y-77425465D01*
X116690219Y-77371590D01*
X116744094Y-77317715D01*
X116797969Y-77209966D01*
X116797969Y-77156091D01*
X116609407Y-76967529D01*
X116501658Y-77075279D01*
X117094280Y-76967529D02*
X116528595Y-76401844D01*
X117417529Y-76644280D01*
X116851844Y-76078595D01*
X117686903Y-76374906D02*
X117121218Y-75809221D01*
X117255905Y-75674534D01*
X117363654Y-75620659D01*
X117471404Y-75620659D01*
X117552216Y-75647597D01*
X117686903Y-75728409D01*
X117767715Y-75809221D01*
X117848528Y-75943908D01*
X117875465Y-76024720D01*
X117875465Y-76132470D01*
X117821590Y-76240219D01*
X117686903Y-76374906D01*
X116286158Y-102098155D02*
X116205346Y-102125093D01*
X116124534Y-102205905D01*
X116070659Y-102313654D01*
X116070659Y-102421404D01*
X116097597Y-102502216D01*
X116178409Y-102636903D01*
X116259221Y-102717715D01*
X116393908Y-102798528D01*
X116474720Y-102825465D01*
X116582470Y-102825465D01*
X116690219Y-102771590D01*
X116744094Y-102717715D01*
X116797969Y-102609966D01*
X116797969Y-102556091D01*
X116609407Y-102367529D01*
X116501658Y-102475279D01*
X117094280Y-102367529D02*
X116528595Y-101801844D01*
X117417529Y-102044280D01*
X116851844Y-101478595D01*
X117686903Y-101774906D02*
X117121218Y-101209221D01*
X117255905Y-101074534D01*
X117363654Y-101020659D01*
X117471404Y-101020659D01*
X117552216Y-101047597D01*
X117686903Y-101128409D01*
X117767715Y-101209221D01*
X117848528Y-101343908D01*
X117875465Y-101424720D01*
X117875465Y-101532470D01*
X117821590Y-101640219D01*
X117686903Y-101774906D01*
X141897722Y-104890592D02*
X141816910Y-104917529D01*
X141736097Y-104998341D01*
X141682223Y-105106091D01*
X141682223Y-105213841D01*
X141709160Y-105294653D01*
X141789972Y-105429340D01*
X141870784Y-105510152D01*
X142005471Y-105590964D01*
X142086284Y-105617902D01*
X142194033Y-105617902D01*
X142301783Y-105564027D01*
X142355658Y-105510152D01*
X142409532Y-105402402D01*
X142409532Y-105348528D01*
X142220971Y-105159966D01*
X142113221Y-105267715D01*
X142705844Y-105159966D02*
X142140158Y-104594280D01*
X142355658Y-104378781D01*
X142436470Y-104351844D01*
X142490345Y-104351844D01*
X142571157Y-104378781D01*
X142651969Y-104459593D01*
X142678906Y-104540406D01*
X142678906Y-104594280D01*
X142651969Y-104675093D01*
X142436470Y-104890592D01*
X142732781Y-104109407D02*
X142732781Y-104055532D01*
X142759719Y-103974720D01*
X142894406Y-103840033D01*
X142975218Y-103813096D01*
X143029093Y-103813096D01*
X143109905Y-103840033D01*
X143163780Y-103893908D01*
X143217654Y-104001658D01*
X143217654Y-104648155D01*
X143567841Y-104297969D01*
X144106589Y-103759221D02*
X143783340Y-104082470D01*
X143944964Y-103920845D02*
X143379279Y-103355160D01*
X143406216Y-103489847D01*
X143406216Y-103597597D01*
X143379279Y-103678409D01*
X141897722Y-92190592D02*
X141816910Y-92217529D01*
X141736097Y-92298341D01*
X141682223Y-92406091D01*
X141682223Y-92513841D01*
X141709160Y-92594653D01*
X141789972Y-92729340D01*
X141870784Y-92810152D01*
X142005471Y-92890964D01*
X142086284Y-92917902D01*
X142194033Y-92917902D01*
X142301783Y-92864027D01*
X142355658Y-92810152D01*
X142409532Y-92702402D01*
X142409532Y-92648528D01*
X142220971Y-92459966D01*
X142113221Y-92567715D01*
X142705844Y-92459966D02*
X142140158Y-91894280D01*
X142355658Y-91678781D01*
X142436470Y-91651844D01*
X142490345Y-91651844D01*
X142571157Y-91678781D01*
X142651969Y-91759593D01*
X142678906Y-91840406D01*
X142678906Y-91894280D01*
X142651969Y-91975093D01*
X142436470Y-92190592D01*
X142732781Y-91409407D02*
X142732781Y-91355532D01*
X142759719Y-91274720D01*
X142894406Y-91140033D01*
X142975218Y-91113096D01*
X143029093Y-91113096D01*
X143109905Y-91140033D01*
X143163780Y-91193908D01*
X143217654Y-91301658D01*
X143217654Y-91948155D01*
X143567841Y-91597969D01*
X143190717Y-90843722D02*
X143567841Y-90466598D01*
X143891089Y-91274720D01*
X141897722Y-117580592D02*
X141816910Y-117607529D01*
X141736097Y-117688341D01*
X141682223Y-117796091D01*
X141682223Y-117903841D01*
X141709160Y-117984653D01*
X141789972Y-118119340D01*
X141870784Y-118200152D01*
X142005471Y-118280964D01*
X142086284Y-118307902D01*
X142194033Y-118307902D01*
X142301783Y-118254027D01*
X142355658Y-118200152D01*
X142409532Y-118092402D01*
X142409532Y-118038528D01*
X142220971Y-117849966D01*
X142113221Y-117957715D01*
X142705844Y-117849966D02*
X142140158Y-117284280D01*
X142355658Y-117068781D01*
X142436470Y-117041844D01*
X142490345Y-117041844D01*
X142571157Y-117068781D01*
X142651969Y-117149593D01*
X142678906Y-117230406D01*
X142678906Y-117284280D01*
X142651969Y-117365093D01*
X142436470Y-117580592D01*
X143567841Y-116987969D02*
X143244592Y-117311218D01*
X143406216Y-117149593D02*
X142840531Y-116583908D01*
X142867468Y-116718595D01*
X142867468Y-116826345D01*
X142840531Y-116907157D01*
X143190717Y-116233722D02*
X143567841Y-115856598D01*
X143891089Y-116664720D01*
X116313096Y-71591218D02*
X116232284Y-71618155D01*
X116151471Y-71698967D01*
X116097597Y-71806717D01*
X116097597Y-71914467D01*
X116124534Y-71995279D01*
X116205346Y-72129966D01*
X116286158Y-72210778D01*
X116420845Y-72291590D01*
X116501658Y-72318528D01*
X116609407Y-72318528D01*
X116717157Y-72264653D01*
X116771032Y-72210778D01*
X116824906Y-72103028D01*
X116824906Y-72049154D01*
X116636345Y-71860592D01*
X116528595Y-71968341D01*
X117121218Y-71860592D02*
X116555532Y-71294906D01*
X116771032Y-71079407D01*
X116851844Y-71052470D01*
X116905719Y-71052470D01*
X116986531Y-71079407D01*
X117067343Y-71160219D01*
X117094280Y-71241032D01*
X117094280Y-71294906D01*
X117067343Y-71375719D01*
X116851844Y-71591218D01*
X117228967Y-70621471D02*
X117282842Y-70567597D01*
X117363654Y-70540659D01*
X117417529Y-70540659D01*
X117498341Y-70567597D01*
X117633028Y-70648409D01*
X117767715Y-70783096D01*
X117848528Y-70917783D01*
X117875465Y-70998595D01*
X117875465Y-71052470D01*
X117848528Y-71133282D01*
X117794653Y-71187157D01*
X117713841Y-71214094D01*
X117659966Y-71214094D01*
X117579154Y-71187157D01*
X117444467Y-71106345D01*
X117309780Y-70971658D01*
X117228967Y-70836971D01*
X117202030Y-70756158D01*
X117202030Y-70702284D01*
X117228967Y-70621471D01*
X115789722Y-120120592D02*
X115708910Y-120147529D01*
X115628097Y-120228341D01*
X115574223Y-120336091D01*
X115574223Y-120443841D01*
X115601160Y-120524653D01*
X115681972Y-120659340D01*
X115762784Y-120740152D01*
X115897471Y-120820964D01*
X115978284Y-120847902D01*
X116086033Y-120847902D01*
X116193783Y-120794027D01*
X116247658Y-120740152D01*
X116301532Y-120632402D01*
X116301532Y-120578528D01*
X116112971Y-120389966D01*
X116005221Y-120497715D01*
X116597844Y-120389966D02*
X116032158Y-119824280D01*
X116247658Y-119608781D01*
X116328470Y-119581844D01*
X116382345Y-119581844D01*
X116463157Y-119608781D01*
X116543969Y-119689593D01*
X116570906Y-119770406D01*
X116570906Y-119824280D01*
X116543969Y-119905093D01*
X116328470Y-120120592D01*
X117459841Y-119527969D02*
X117136592Y-119851218D01*
X117298216Y-119689593D02*
X116732531Y-119123908D01*
X116759468Y-119258595D01*
X116759468Y-119366345D01*
X116732531Y-119447157D01*
X117405966Y-118450473D02*
X117136592Y-118719847D01*
X117379028Y-119016158D01*
X117379028Y-118962284D01*
X117405966Y-118881471D01*
X117540653Y-118746784D01*
X117621465Y-118719847D01*
X117675340Y-118719847D01*
X117756152Y-118746784D01*
X117890839Y-118881471D01*
X117917776Y-118962284D01*
X117917776Y-119016158D01*
X117890839Y-119096971D01*
X117756152Y-119231658D01*
X117675340Y-119258595D01*
X117621465Y-119258595D01*
X116286158Y-89398155D02*
X116205346Y-89425093D01*
X116124534Y-89505905D01*
X116070659Y-89613654D01*
X116070659Y-89721404D01*
X116097597Y-89802216D01*
X116178409Y-89936903D01*
X116259221Y-90017715D01*
X116393908Y-90098528D01*
X116474720Y-90125465D01*
X116582470Y-90125465D01*
X116690219Y-90071590D01*
X116744094Y-90017715D01*
X116797969Y-89909966D01*
X116797969Y-89856091D01*
X116609407Y-89667529D01*
X116501658Y-89775279D01*
X117094280Y-89667529D02*
X116528595Y-89101844D01*
X117417529Y-89344280D01*
X116851844Y-88778595D01*
X117686903Y-89074906D02*
X117121218Y-88509221D01*
X117255905Y-88374534D01*
X117363654Y-88320659D01*
X117471404Y-88320659D01*
X117552216Y-88347597D01*
X117686903Y-88428409D01*
X117767715Y-88509221D01*
X117848528Y-88643908D01*
X117875465Y-88724720D01*
X117875465Y-88832470D01*
X117821590Y-88940219D01*
X117686903Y-89074906D01*
X141897722Y-99800592D02*
X141816910Y-99827529D01*
X141736097Y-99908341D01*
X141682223Y-100016091D01*
X141682223Y-100123841D01*
X141709160Y-100204653D01*
X141789972Y-100339340D01*
X141870784Y-100420152D01*
X142005471Y-100500964D01*
X142086284Y-100527902D01*
X142194033Y-100527902D01*
X142301783Y-100474027D01*
X142355658Y-100420152D01*
X142409532Y-100312402D01*
X142409532Y-100258528D01*
X142220971Y-100069966D01*
X142113221Y-100177715D01*
X142705844Y-100069966D02*
X142140158Y-99504280D01*
X142355658Y-99288781D01*
X142436470Y-99261844D01*
X142490345Y-99261844D01*
X142571157Y-99288781D01*
X142651969Y-99369593D01*
X142678906Y-99450406D01*
X142678906Y-99504280D01*
X142651969Y-99585093D01*
X142436470Y-99800592D01*
X142732781Y-99019407D02*
X142732781Y-98965532D01*
X142759719Y-98884720D01*
X142894406Y-98750033D01*
X142975218Y-98723096D01*
X143029093Y-98723096D01*
X143109905Y-98750033D01*
X143163780Y-98803908D01*
X143217654Y-98911658D01*
X143217654Y-99558155D01*
X143567841Y-99207969D01*
X143271529Y-98480659D02*
X143271529Y-98426784D01*
X143298467Y-98345972D01*
X143433154Y-98211285D01*
X143513966Y-98184348D01*
X143567841Y-98184348D01*
X143648653Y-98211285D01*
X143702528Y-98265160D01*
X143756402Y-98372910D01*
X143756402Y-99019407D01*
X144106589Y-98669221D01*
X141951597Y-90340964D02*
X142220971Y-90071590D01*
X142059346Y-90556463D02*
X141682223Y-89802216D01*
X142436470Y-90179340D01*
X142382595Y-89155719D02*
X142301783Y-89182656D01*
X142220971Y-89263468D01*
X142167096Y-89371218D01*
X142167096Y-89478967D01*
X142194033Y-89559780D01*
X142274845Y-89694467D01*
X142355658Y-89775279D01*
X142490345Y-89856091D01*
X142571157Y-89883028D01*
X142678906Y-89883028D01*
X142786656Y-89829154D01*
X142840531Y-89775279D01*
X142894406Y-89667529D01*
X142894406Y-89613654D01*
X142705844Y-89425093D01*
X142598094Y-89532842D01*
X143190717Y-89425093D02*
X142625032Y-88859407D01*
X143513966Y-89101844D01*
X142948280Y-88536158D01*
X143783340Y-88832470D02*
X143217654Y-88266784D01*
X143352341Y-88132097D01*
X143460091Y-88078223D01*
X143567841Y-88078223D01*
X143648653Y-88105160D01*
X143783340Y-88185972D01*
X143864152Y-88266784D01*
X143944964Y-88401471D01*
X143971902Y-88482284D01*
X143971902Y-88590033D01*
X143918027Y-88697783D01*
X143783340Y-88832470D01*
X141720473Y-74669966D02*
X142474720Y-75047089D01*
X142097597Y-74292842D01*
X142797969Y-74669966D02*
X142905719Y-74616091D01*
X143040406Y-74481404D01*
X143067343Y-74400592D01*
X143067343Y-74346717D01*
X143040406Y-74265905D01*
X142986531Y-74212030D01*
X142905719Y-74185093D01*
X142851844Y-74185093D01*
X142771032Y-74212030D01*
X142636345Y-74292842D01*
X142555532Y-74319780D01*
X142501658Y-74319780D01*
X142420845Y-74292842D01*
X142366971Y-74238967D01*
X142340033Y-74158155D01*
X142340033Y-74104280D01*
X142366971Y-74023468D01*
X142501658Y-73888781D01*
X142609407Y-73834906D01*
X143228967Y-73754094D02*
X143498341Y-74023468D01*
X142744094Y-73646345D02*
X143228967Y-73754094D01*
X143121218Y-73269221D01*
X143821590Y-73646345D02*
X143929340Y-73592470D01*
X144064027Y-73457783D01*
X144090964Y-73376971D01*
X144090964Y-73323096D01*
X144064027Y-73242284D01*
X144010152Y-73188409D01*
X143929340Y-73161471D01*
X143875465Y-73161471D01*
X143794653Y-73188409D01*
X143659966Y-73269221D01*
X143579154Y-73296158D01*
X143525279Y-73296158D01*
X143444467Y-73269221D01*
X143390592Y-73215346D01*
X143363654Y-73134534D01*
X143363654Y-73080659D01*
X143390592Y-72999847D01*
X143525279Y-72865160D01*
X143633028Y-72811285D01*
X141886158Y-76698155D02*
X141805346Y-76725093D01*
X141724534Y-76805905D01*
X141670659Y-76913654D01*
X141670659Y-77021404D01*
X141697597Y-77102216D01*
X141778409Y-77236903D01*
X141859221Y-77317715D01*
X141993908Y-77398528D01*
X142074720Y-77425465D01*
X142182470Y-77425465D01*
X142290219Y-77371590D01*
X142344094Y-77317715D01*
X142397969Y-77209966D01*
X142397969Y-77156091D01*
X142209407Y-76967529D01*
X142101658Y-77075279D01*
X142694280Y-76967529D02*
X142128595Y-76401844D01*
X143017529Y-76644280D01*
X142451844Y-76078595D01*
X143286903Y-76374906D02*
X142721218Y-75809221D01*
X142855905Y-75674534D01*
X142963654Y-75620659D01*
X143071404Y-75620659D01*
X143152216Y-75647597D01*
X143286903Y-75728409D01*
X143367715Y-75809221D01*
X143448528Y-75943908D01*
X143475465Y-76024720D01*
X143475465Y-76132470D01*
X143421590Y-76240219D01*
X143286903Y-76374906D01*
X116413096Y-94421218D02*
X116332284Y-94448155D01*
X116251471Y-94528967D01*
X116197597Y-94636717D01*
X116197597Y-94744467D01*
X116224534Y-94825279D01*
X116305346Y-94959966D01*
X116386158Y-95040778D01*
X116520845Y-95121590D01*
X116601658Y-95148528D01*
X116709407Y-95148528D01*
X116817157Y-95094653D01*
X116871032Y-95040778D01*
X116924906Y-94933028D01*
X116924906Y-94879154D01*
X116736345Y-94690592D01*
X116628595Y-94798341D01*
X117221218Y-94690592D02*
X116655532Y-94124906D01*
X116871032Y-93909407D01*
X116951844Y-93882470D01*
X117005719Y-93882470D01*
X117086531Y-93909407D01*
X117167343Y-93990219D01*
X117194280Y-94071032D01*
X117194280Y-94124906D01*
X117167343Y-94205719D01*
X116951844Y-94421218D01*
X117167343Y-93613096D02*
X117544467Y-93235972D01*
X117867715Y-94044094D01*
X116213096Y-79211218D02*
X116132284Y-79238155D01*
X116051471Y-79318967D01*
X115997597Y-79426717D01*
X115997597Y-79534467D01*
X116024534Y-79615279D01*
X116105346Y-79749966D01*
X116186158Y-79830778D01*
X116320845Y-79911590D01*
X116401658Y-79938528D01*
X116509407Y-79938528D01*
X116617157Y-79884653D01*
X116671032Y-79830778D01*
X116724906Y-79723028D01*
X116724906Y-79669154D01*
X116536345Y-79480592D01*
X116428595Y-79588341D01*
X117021218Y-79480592D02*
X116455532Y-78914906D01*
X116671032Y-78699407D01*
X116751844Y-78672470D01*
X116805719Y-78672470D01*
X116886531Y-78699407D01*
X116967343Y-78780219D01*
X116994280Y-78861032D01*
X116994280Y-78914906D01*
X116967343Y-78995719D01*
X116751844Y-79211218D01*
X117048155Y-78430033D02*
X117048155Y-78376158D01*
X117075093Y-78295346D01*
X117209780Y-78160659D01*
X117290592Y-78133722D01*
X117344467Y-78133722D01*
X117425279Y-78160659D01*
X117479154Y-78214534D01*
X117533028Y-78322284D01*
X117533028Y-78968781D01*
X117883215Y-78618595D01*
X141897722Y-109960592D02*
X141816910Y-109987529D01*
X141736097Y-110068341D01*
X141682223Y-110176091D01*
X141682223Y-110283841D01*
X141709160Y-110364653D01*
X141789972Y-110499340D01*
X141870784Y-110580152D01*
X142005471Y-110660964D01*
X142086284Y-110687902D01*
X142194033Y-110687902D01*
X142301783Y-110634027D01*
X142355658Y-110580152D01*
X142409532Y-110472402D01*
X142409532Y-110418528D01*
X142220971Y-110229966D01*
X142113221Y-110337715D01*
X142705844Y-110229966D02*
X142140158Y-109664280D01*
X142355658Y-109448781D01*
X142436470Y-109421844D01*
X142490345Y-109421844D01*
X142571157Y-109448781D01*
X142651969Y-109529593D01*
X142678906Y-109610406D01*
X142678906Y-109664280D01*
X142651969Y-109745093D01*
X142436470Y-109960592D01*
X143567841Y-109367969D02*
X143244592Y-109691218D01*
X143406216Y-109529593D02*
X142840531Y-108963908D01*
X142867468Y-109098595D01*
X142867468Y-109206345D01*
X142840531Y-109287157D01*
X143837215Y-109098595D02*
X143944964Y-108990845D01*
X143971902Y-108910033D01*
X143971902Y-108856158D01*
X143944964Y-108721471D01*
X143864152Y-108586784D01*
X143648653Y-108371285D01*
X143567841Y-108344348D01*
X143513966Y-108344348D01*
X143433154Y-108371285D01*
X143325404Y-108479035D01*
X143298467Y-108559847D01*
X143298467Y-108613722D01*
X143325404Y-108694534D01*
X143460091Y-108829221D01*
X143540903Y-108856158D01*
X143594778Y-108856158D01*
X143675590Y-108829221D01*
X143783340Y-108721471D01*
X143810277Y-108640659D01*
X143810277Y-108586784D01*
X143783340Y-108505972D01*
X141689847Y-82090592D02*
X142040033Y-81740406D01*
X142066971Y-82144467D01*
X142147783Y-82063654D01*
X142228595Y-82036717D01*
X142282470Y-82036717D01*
X142363282Y-82063654D01*
X142497969Y-82198341D01*
X142524906Y-82279154D01*
X142524906Y-82333028D01*
X142497969Y-82413841D01*
X142336345Y-82575465D01*
X142255532Y-82602402D01*
X142201658Y-82602402D01*
X142201658Y-81578781D02*
X142955905Y-81955905D01*
X142578781Y-81201658D01*
X142713468Y-81066971D02*
X143063654Y-80716784D01*
X143090592Y-81120845D01*
X143171404Y-81040033D01*
X143252216Y-81013096D01*
X143306091Y-81013096D01*
X143386903Y-81040033D01*
X143521590Y-81174720D01*
X143548528Y-81255532D01*
X143548528Y-81309407D01*
X143521590Y-81390219D01*
X143359966Y-81551844D01*
X143279154Y-81578781D01*
X143225279Y-81578781D01*
X116213096Y-74121218D02*
X116132284Y-74148155D01*
X116051471Y-74228967D01*
X115997597Y-74336717D01*
X115997597Y-74444467D01*
X116024534Y-74525279D01*
X116105346Y-74659966D01*
X116186158Y-74740778D01*
X116320845Y-74821590D01*
X116401658Y-74848528D01*
X116509407Y-74848528D01*
X116617157Y-74794653D01*
X116671032Y-74740778D01*
X116724906Y-74633028D01*
X116724906Y-74579154D01*
X116536345Y-74390592D01*
X116428595Y-74498341D01*
X117021218Y-74390592D02*
X116455532Y-73824906D01*
X116671032Y-73609407D01*
X116751844Y-73582470D01*
X116805719Y-73582470D01*
X116886531Y-73609407D01*
X116967343Y-73690219D01*
X116994280Y-73771032D01*
X116994280Y-73824906D01*
X116967343Y-73905719D01*
X116751844Y-74121218D01*
X117883215Y-73528595D02*
X117559966Y-73851844D01*
X117721590Y-73690219D02*
X117155905Y-73124534D01*
X117182842Y-73259221D01*
X117182842Y-73366971D01*
X117155905Y-73447783D01*
X115789722Y-104880592D02*
X115708910Y-104907529D01*
X115628097Y-104988341D01*
X115574223Y-105096091D01*
X115574223Y-105203841D01*
X115601160Y-105284653D01*
X115681972Y-105419340D01*
X115762784Y-105500152D01*
X115897471Y-105580964D01*
X115978284Y-105607902D01*
X116086033Y-105607902D01*
X116193783Y-105554027D01*
X116247658Y-105500152D01*
X116301532Y-105392402D01*
X116301532Y-105338528D01*
X116112971Y-105149966D01*
X116005221Y-105257715D01*
X116597844Y-105149966D02*
X116032158Y-104584280D01*
X116247658Y-104368781D01*
X116328470Y-104341844D01*
X116382345Y-104341844D01*
X116463157Y-104368781D01*
X116543969Y-104449593D01*
X116570906Y-104530406D01*
X116570906Y-104584280D01*
X116543969Y-104665093D01*
X116328470Y-104880592D01*
X117459841Y-104287969D02*
X117136592Y-104611218D01*
X117298216Y-104449593D02*
X116732531Y-103883908D01*
X116759468Y-104018595D01*
X116759468Y-104126345D01*
X116732531Y-104207157D01*
X117244341Y-103372097D02*
X117298216Y-103318223D01*
X117379028Y-103291285D01*
X117432903Y-103291285D01*
X117513715Y-103318223D01*
X117648402Y-103399035D01*
X117783089Y-103533722D01*
X117863902Y-103668409D01*
X117890839Y-103749221D01*
X117890839Y-103803096D01*
X117863902Y-103883908D01*
X117810027Y-103937783D01*
X117729215Y-103964720D01*
X117675340Y-103964720D01*
X117594528Y-103937783D01*
X117459841Y-103856971D01*
X117325154Y-103722284D01*
X117244341Y-103587597D01*
X117217404Y-103506784D01*
X117217404Y-103452910D01*
X117244341Y-103372097D01*
X116313096Y-84291218D02*
X116232284Y-84318155D01*
X116151471Y-84398967D01*
X116097597Y-84506717D01*
X116097597Y-84614467D01*
X116124534Y-84695279D01*
X116205346Y-84829966D01*
X116286158Y-84910778D01*
X116420845Y-84991590D01*
X116501658Y-85018528D01*
X116609407Y-85018528D01*
X116717157Y-84964653D01*
X116771032Y-84910778D01*
X116824906Y-84803028D01*
X116824906Y-84749154D01*
X116636345Y-84560592D01*
X116528595Y-84668341D01*
X117121218Y-84560592D02*
X116555532Y-83994906D01*
X116771032Y-83779407D01*
X116851844Y-83752470D01*
X116905719Y-83752470D01*
X116986531Y-83779407D01*
X117067343Y-83860219D01*
X117094280Y-83941032D01*
X117094280Y-83994906D01*
X117067343Y-84075719D01*
X116851844Y-84291218D01*
X117552216Y-83375346D02*
X117929340Y-83752470D01*
X117202030Y-83294534D02*
X117471404Y-83833282D01*
X117821590Y-83483096D01*
X116313096Y-99531218D02*
X116232284Y-99558155D01*
X116151471Y-99638967D01*
X116097597Y-99746717D01*
X116097597Y-99854467D01*
X116124534Y-99935279D01*
X116205346Y-100069966D01*
X116286158Y-100150778D01*
X116420845Y-100231590D01*
X116501658Y-100258528D01*
X116609407Y-100258528D01*
X116717157Y-100204653D01*
X116771032Y-100150778D01*
X116824906Y-100043028D01*
X116824906Y-99989154D01*
X116636345Y-99800592D01*
X116528595Y-99908341D01*
X117121218Y-99800592D02*
X116555532Y-99234906D01*
X116771032Y-99019407D01*
X116851844Y-98992470D01*
X116905719Y-98992470D01*
X116986531Y-99019407D01*
X117067343Y-99100219D01*
X117094280Y-99181032D01*
X117094280Y-99234906D01*
X117067343Y-99315719D01*
X116851844Y-99531218D01*
X117713841Y-99207969D02*
X117821590Y-99100219D01*
X117848528Y-99019407D01*
X117848528Y-98965532D01*
X117821590Y-98830845D01*
X117740778Y-98696158D01*
X117525279Y-98480659D01*
X117444467Y-98453722D01*
X117390592Y-98453722D01*
X117309780Y-98480659D01*
X117202030Y-98588409D01*
X117175093Y-98669221D01*
X117175093Y-98723096D01*
X117202030Y-98803908D01*
X117336717Y-98938595D01*
X117417529Y-98965532D01*
X117471404Y-98965532D01*
X117552216Y-98938595D01*
X117659966Y-98830845D01*
X117686903Y-98750033D01*
X117686903Y-98696158D01*
X117659966Y-98615346D01*
X141897722Y-94720592D02*
X141816910Y-94747529D01*
X141736097Y-94828341D01*
X141682223Y-94936091D01*
X141682223Y-95043841D01*
X141709160Y-95124653D01*
X141789972Y-95259340D01*
X141870784Y-95340152D01*
X142005471Y-95420964D01*
X142086284Y-95447902D01*
X142194033Y-95447902D01*
X142301783Y-95394027D01*
X142355658Y-95340152D01*
X142409532Y-95232402D01*
X142409532Y-95178528D01*
X142220971Y-94989966D01*
X142113221Y-95097715D01*
X142705844Y-94989966D02*
X142140158Y-94424280D01*
X142355658Y-94208781D01*
X142436470Y-94181844D01*
X142490345Y-94181844D01*
X142571157Y-94208781D01*
X142651969Y-94289593D01*
X142678906Y-94370406D01*
X142678906Y-94424280D01*
X142651969Y-94505093D01*
X142436470Y-94720592D01*
X142732781Y-93939407D02*
X142732781Y-93885532D01*
X142759719Y-93804720D01*
X142894406Y-93670033D01*
X142975218Y-93643096D01*
X143029093Y-93643096D01*
X143109905Y-93670033D01*
X143163780Y-93723908D01*
X143217654Y-93831658D01*
X143217654Y-94478155D01*
X143567841Y-94127969D01*
X143487028Y-93077410D02*
X143379279Y-93185160D01*
X143352341Y-93265972D01*
X143352341Y-93319847D01*
X143379279Y-93454534D01*
X143460091Y-93589221D01*
X143675590Y-93804720D01*
X143756402Y-93831658D01*
X143810277Y-93831658D01*
X143891089Y-93804720D01*
X143998839Y-93696971D01*
X144025776Y-93616158D01*
X144025776Y-93562284D01*
X143998839Y-93481471D01*
X143864152Y-93346784D01*
X143783340Y-93319847D01*
X143729465Y-93319847D01*
X143648653Y-93346784D01*
X143540903Y-93454534D01*
X143513966Y-93535346D01*
X143513966Y-93589221D01*
X143540903Y-93670033D01*
X142638375Y-97543435D02*
X142180439Y-97462622D01*
X142315126Y-97866683D02*
X141749441Y-97300998D01*
X141964940Y-97085499D01*
X142045752Y-97058561D01*
X142099627Y-97058561D01*
X142180439Y-97085499D01*
X142261251Y-97166311D01*
X142288189Y-97247123D01*
X142288189Y-97300998D01*
X142261251Y-97381810D01*
X142045752Y-97597309D01*
X142315126Y-96735312D02*
X142773062Y-97193248D01*
X142853874Y-97220186D01*
X142907749Y-97220186D01*
X142988561Y-97193248D01*
X143096311Y-97085499D01*
X143123248Y-97004687D01*
X143123248Y-96950812D01*
X143096311Y-96869999D01*
X142638375Y-96412064D01*
X143473435Y-96708375D02*
X142907749Y-96142690D01*
X143796683Y-96385126D01*
X143230998Y-95819441D01*
X115743722Y-117580592D02*
X115662910Y-117607529D01*
X115582097Y-117688341D01*
X115528223Y-117796091D01*
X115528223Y-117903841D01*
X115555160Y-117984653D01*
X115635972Y-118119340D01*
X115716784Y-118200152D01*
X115851471Y-118280964D01*
X115932284Y-118307902D01*
X116040033Y-118307902D01*
X116147783Y-118254027D01*
X116201658Y-118200152D01*
X116255532Y-118092402D01*
X116255532Y-118038528D01*
X116066971Y-117849966D01*
X115959221Y-117957715D01*
X116551844Y-117849966D02*
X115986158Y-117284280D01*
X116201658Y-117068781D01*
X116282470Y-117041844D01*
X116336345Y-117041844D01*
X116417157Y-117068781D01*
X116497969Y-117149593D01*
X116524906Y-117230406D01*
X116524906Y-117284280D01*
X116497969Y-117365093D01*
X116282470Y-117580592D01*
X117413841Y-116987969D02*
X117090592Y-117311218D01*
X117252216Y-117149593D02*
X116686531Y-116583908D01*
X116713468Y-116718595D01*
X116713468Y-116826345D01*
X116686531Y-116907157D01*
X117521590Y-116125972D02*
X117898714Y-116503096D01*
X117171404Y-116045160D02*
X117440778Y-116583908D01*
X117790964Y-116233722D01*
X141753129Y-72127309D02*
X142507377Y-72504433D01*
X142130253Y-71750186D01*
X142776751Y-71642436D02*
X142884500Y-71588561D01*
X142938375Y-71588561D01*
X143019187Y-71615499D01*
X143100000Y-71696311D01*
X143126937Y-71777123D01*
X143126937Y-71830998D01*
X143100000Y-71911810D01*
X142884500Y-72127309D01*
X142318815Y-71561624D01*
X142507377Y-71373062D01*
X142588189Y-71346125D01*
X142642064Y-71346125D01*
X142722876Y-71373062D01*
X142776751Y-71426937D01*
X142803688Y-71507749D01*
X142803688Y-71561624D01*
X142776751Y-71642436D01*
X142588189Y-71830998D01*
X142884500Y-70995938D02*
X143342436Y-71453874D01*
X143423248Y-71480812D01*
X143477123Y-71480812D01*
X143557935Y-71453874D01*
X143665685Y-71346125D01*
X143692622Y-71265312D01*
X143692622Y-71211438D01*
X143665685Y-71130625D01*
X143207749Y-70672690D01*
X143988934Y-70969001D02*
X144096683Y-70915126D01*
X144231370Y-70780439D01*
X144258308Y-70699627D01*
X144258308Y-70645752D01*
X144231370Y-70564940D01*
X144177496Y-70511065D01*
X144096683Y-70484128D01*
X144042809Y-70484128D01*
X143961996Y-70511065D01*
X143827309Y-70591877D01*
X143746497Y-70618815D01*
X143692622Y-70618815D01*
X143611810Y-70591877D01*
X143557935Y-70538003D01*
X143530998Y-70457190D01*
X143530998Y-70403316D01*
X143557935Y-70322503D01*
X143692622Y-70187816D01*
X143800372Y-70133942D01*
X141897722Y-120120592D02*
X141816910Y-120147529D01*
X141736097Y-120228341D01*
X141682223Y-120336091D01*
X141682223Y-120443841D01*
X141709160Y-120524653D01*
X141789972Y-120659340D01*
X141870784Y-120740152D01*
X142005471Y-120820964D01*
X142086284Y-120847902D01*
X142194033Y-120847902D01*
X142301783Y-120794027D01*
X142355658Y-120740152D01*
X142409532Y-120632402D01*
X142409532Y-120578528D01*
X142220971Y-120389966D01*
X142113221Y-120497715D01*
X142705844Y-120389966D02*
X142140158Y-119824280D01*
X142355658Y-119608781D01*
X142436470Y-119581844D01*
X142490345Y-119581844D01*
X142571157Y-119608781D01*
X142651969Y-119689593D01*
X142678906Y-119770406D01*
X142678906Y-119824280D01*
X142651969Y-119905093D01*
X142436470Y-120120592D01*
X143567841Y-119527969D02*
X143244592Y-119851218D01*
X143406216Y-119689593D02*
X142840531Y-119123908D01*
X142867468Y-119258595D01*
X142867468Y-119366345D01*
X142840531Y-119447157D01*
X143487028Y-118477410D02*
X143379279Y-118585160D01*
X143352341Y-118665972D01*
X143352341Y-118719847D01*
X143379279Y-118854534D01*
X143460091Y-118989221D01*
X143675590Y-119204720D01*
X143756402Y-119231658D01*
X143810277Y-119231658D01*
X143891089Y-119204720D01*
X143998839Y-119096971D01*
X144025776Y-119016158D01*
X144025776Y-118962284D01*
X143998839Y-118881471D01*
X143864152Y-118746784D01*
X143783340Y-118719847D01*
X143729465Y-118719847D01*
X143648653Y-118746784D01*
X143540903Y-118854534D01*
X143513966Y-118935346D01*
X143513966Y-118989221D01*
X143540903Y-119070033D01*
X116313096Y-86831218D02*
X116232284Y-86858155D01*
X116151471Y-86938967D01*
X116097597Y-87046717D01*
X116097597Y-87154467D01*
X116124534Y-87235279D01*
X116205346Y-87369966D01*
X116286158Y-87450778D01*
X116420845Y-87531590D01*
X116501658Y-87558528D01*
X116609407Y-87558528D01*
X116717157Y-87504653D01*
X116771032Y-87450778D01*
X116824906Y-87343028D01*
X116824906Y-87289154D01*
X116636345Y-87100592D01*
X116528595Y-87208341D01*
X117121218Y-87100592D02*
X116555532Y-86534906D01*
X116771032Y-86319407D01*
X116851844Y-86292470D01*
X116905719Y-86292470D01*
X116986531Y-86319407D01*
X117067343Y-86400219D01*
X117094280Y-86481032D01*
X117094280Y-86534906D01*
X117067343Y-86615719D01*
X116851844Y-86831218D01*
X117390592Y-85699847D02*
X117121218Y-85969221D01*
X117363654Y-86265532D01*
X117363654Y-86211658D01*
X117390592Y-86130845D01*
X117525279Y-85996158D01*
X117606091Y-85969221D01*
X117659966Y-85969221D01*
X117740778Y-85996158D01*
X117875465Y-86130845D01*
X117902402Y-86211658D01*
X117902402Y-86265532D01*
X117875465Y-86346345D01*
X117740778Y-86481032D01*
X117659966Y-86507969D01*
X117606091Y-86507969D01*
X115643722Y-107420592D02*
X115562910Y-107447529D01*
X115482097Y-107528341D01*
X115428223Y-107636091D01*
X115428223Y-107743841D01*
X115455160Y-107824653D01*
X115535972Y-107959340D01*
X115616784Y-108040152D01*
X115751471Y-108120964D01*
X115832284Y-108147902D01*
X115940033Y-108147902D01*
X116047783Y-108094027D01*
X116101658Y-108040152D01*
X116155532Y-107932402D01*
X116155532Y-107878528D01*
X115966971Y-107689966D01*
X115859221Y-107797715D01*
X116451844Y-107689966D02*
X115886158Y-107124280D01*
X116101658Y-106908781D01*
X116182470Y-106881844D01*
X116236345Y-106881844D01*
X116317157Y-106908781D01*
X116397969Y-106989593D01*
X116424906Y-107070406D01*
X116424906Y-107124280D01*
X116397969Y-107205093D01*
X116182470Y-107420592D01*
X117313841Y-106827969D02*
X116990592Y-107151218D01*
X117152216Y-106989593D02*
X116586531Y-106423908D01*
X116613468Y-106558595D01*
X116613468Y-106666345D01*
X116586531Y-106747157D01*
X117852589Y-106289221D02*
X117529340Y-106612470D01*
X117690964Y-106450845D02*
X117125279Y-105885160D01*
X117152216Y-106019847D01*
X117152216Y-106127597D01*
X117125279Y-106208409D01*
X141897722Y-86846592D02*
X141816910Y-86873529D01*
X141736097Y-86954341D01*
X141682223Y-87062091D01*
X141682223Y-87169841D01*
X141709160Y-87250653D01*
X141789972Y-87385340D01*
X141870784Y-87466152D01*
X142005471Y-87546964D01*
X142086284Y-87573902D01*
X142194033Y-87573902D01*
X142301783Y-87520027D01*
X142355658Y-87466152D01*
X142409532Y-87358402D01*
X142409532Y-87304528D01*
X142220971Y-87115966D01*
X142113221Y-87223715D01*
X142705844Y-87115966D02*
X142140158Y-86550280D01*
X142355658Y-86334781D01*
X142436470Y-86307844D01*
X142490345Y-86307844D01*
X142571157Y-86334781D01*
X142651969Y-86415593D01*
X142678906Y-86496406D01*
X142678906Y-86550280D01*
X142651969Y-86631093D01*
X142436470Y-86846592D01*
X142732781Y-86065407D02*
X142732781Y-86011532D01*
X142759719Y-85930720D01*
X142894406Y-85796033D01*
X142975218Y-85769096D01*
X143029093Y-85769096D01*
X143109905Y-85796033D01*
X143163780Y-85849908D01*
X143217654Y-85957658D01*
X143217654Y-86604155D01*
X143567841Y-86253969D01*
X143567841Y-85607471D02*
X143487028Y-85634409D01*
X143433154Y-85634409D01*
X143352341Y-85607471D01*
X143325404Y-85580534D01*
X143298467Y-85499722D01*
X143298467Y-85445847D01*
X143325404Y-85365035D01*
X143433154Y-85257285D01*
X143513966Y-85230348D01*
X143567841Y-85230348D01*
X143648653Y-85257285D01*
X143675590Y-85284223D01*
X143702528Y-85365035D01*
X143702528Y-85418910D01*
X143675590Y-85499722D01*
X143567841Y-85607471D01*
X143540903Y-85688284D01*
X143540903Y-85742158D01*
X143567841Y-85822971D01*
X143675590Y-85930720D01*
X143756402Y-85957658D01*
X143810277Y-85957658D01*
X143891089Y-85930720D01*
X143998839Y-85822971D01*
X144025776Y-85742158D01*
X144025776Y-85688284D01*
X143998839Y-85607471D01*
X143891089Y-85499722D01*
X143810277Y-85472784D01*
X143756402Y-85472784D01*
X143675590Y-85499722D01*
X116313096Y-91911218D02*
X116232284Y-91938155D01*
X116151471Y-92018967D01*
X116097597Y-92126717D01*
X116097597Y-92234467D01*
X116124534Y-92315279D01*
X116205346Y-92449966D01*
X116286158Y-92530778D01*
X116420845Y-92611590D01*
X116501658Y-92638528D01*
X116609407Y-92638528D01*
X116717157Y-92584653D01*
X116771032Y-92530778D01*
X116824906Y-92423028D01*
X116824906Y-92369154D01*
X116636345Y-92180592D01*
X116528595Y-92288341D01*
X117121218Y-92180592D02*
X116555532Y-91614906D01*
X116771032Y-91399407D01*
X116851844Y-91372470D01*
X116905719Y-91372470D01*
X116986531Y-91399407D01*
X117067343Y-91480219D01*
X117094280Y-91561032D01*
X117094280Y-91614906D01*
X117067343Y-91695719D01*
X116851844Y-91911218D01*
X117363654Y-90806784D02*
X117255905Y-90914534D01*
X117228967Y-90995346D01*
X117228967Y-91049221D01*
X117255905Y-91183908D01*
X117336717Y-91318595D01*
X117552216Y-91534094D01*
X117633028Y-91561032D01*
X117686903Y-91561032D01*
X117767715Y-91534094D01*
X117875465Y-91426345D01*
X117902402Y-91345532D01*
X117902402Y-91291658D01*
X117875465Y-91210845D01*
X117740778Y-91076158D01*
X117659966Y-91049221D01*
X117606091Y-91049221D01*
X117525279Y-91076158D01*
X117417529Y-91183908D01*
X117390592Y-91264720D01*
X117390592Y-91318595D01*
X117417529Y-91399407D01*
X141897722Y-107420592D02*
X141816910Y-107447529D01*
X141736097Y-107528341D01*
X141682223Y-107636091D01*
X141682223Y-107743841D01*
X141709160Y-107824653D01*
X141789972Y-107959340D01*
X141870784Y-108040152D01*
X142005471Y-108120964D01*
X142086284Y-108147902D01*
X142194033Y-108147902D01*
X142301783Y-108094027D01*
X142355658Y-108040152D01*
X142409532Y-107932402D01*
X142409532Y-107878528D01*
X142220971Y-107689966D01*
X142113221Y-107797715D01*
X142705844Y-107689966D02*
X142140158Y-107124280D01*
X142355658Y-106908781D01*
X142436470Y-106881844D01*
X142490345Y-106881844D01*
X142571157Y-106908781D01*
X142651969Y-106989593D01*
X142678906Y-107070406D01*
X142678906Y-107124280D01*
X142651969Y-107205093D01*
X142436470Y-107420592D01*
X142732781Y-106639407D02*
X142732781Y-106585532D01*
X142759719Y-106504720D01*
X142894406Y-106370033D01*
X142975218Y-106343096D01*
X143029093Y-106343096D01*
X143109905Y-106370033D01*
X143163780Y-106423908D01*
X143217654Y-106531658D01*
X143217654Y-107178155D01*
X143567841Y-106827969D01*
X143352341Y-105912097D02*
X143406216Y-105858223D01*
X143487028Y-105831285D01*
X143540903Y-105831285D01*
X143621715Y-105858223D01*
X143756402Y-105939035D01*
X143891089Y-106073722D01*
X143971902Y-106208409D01*
X143998839Y-106289221D01*
X143998839Y-106343096D01*
X143971902Y-106423908D01*
X143918027Y-106477783D01*
X143837215Y-106504720D01*
X143783340Y-106504720D01*
X143702528Y-106477783D01*
X143567841Y-106396971D01*
X143433154Y-106262284D01*
X143352341Y-106127597D01*
X143325404Y-106046784D01*
X143325404Y-105992910D01*
X143352341Y-105912097D01*
%TO.C,stepper3*%
X106172380Y-130234761D02*
X106267619Y-130282380D01*
X106458095Y-130282380D01*
X106553333Y-130234761D01*
X106600952Y-130139523D01*
X106600952Y-130091904D01*
X106553333Y-129996666D01*
X106458095Y-129949047D01*
X106315238Y-129949047D01*
X106220000Y-129901428D01*
X106172380Y-129806190D01*
X106172380Y-129758571D01*
X106220000Y-129663333D01*
X106315238Y-129615714D01*
X106458095Y-129615714D01*
X106553333Y-129663333D01*
X106886666Y-129615714D02*
X107267619Y-129615714D01*
X107029523Y-129282380D02*
X107029523Y-130139523D01*
X107077142Y-130234761D01*
X107172380Y-130282380D01*
X107267619Y-130282380D01*
X107981904Y-130234761D02*
X107886666Y-130282380D01*
X107696190Y-130282380D01*
X107600952Y-130234761D01*
X107553333Y-130139523D01*
X107553333Y-129758571D01*
X107600952Y-129663333D01*
X107696190Y-129615714D01*
X107886666Y-129615714D01*
X107981904Y-129663333D01*
X108029523Y-129758571D01*
X108029523Y-129853809D01*
X107553333Y-129949047D01*
X108458095Y-129615714D02*
X108458095Y-130615714D01*
X108458095Y-129663333D02*
X108553333Y-129615714D01*
X108743809Y-129615714D01*
X108839047Y-129663333D01*
X108886666Y-129710952D01*
X108934285Y-129806190D01*
X108934285Y-130091904D01*
X108886666Y-130187142D01*
X108839047Y-130234761D01*
X108743809Y-130282380D01*
X108553333Y-130282380D01*
X108458095Y-130234761D01*
X109362857Y-129615714D02*
X109362857Y-130615714D01*
X109362857Y-129663333D02*
X109458095Y-129615714D01*
X109648571Y-129615714D01*
X109743809Y-129663333D01*
X109791428Y-129710952D01*
X109839047Y-129806190D01*
X109839047Y-130091904D01*
X109791428Y-130187142D01*
X109743809Y-130234761D01*
X109648571Y-130282380D01*
X109458095Y-130282380D01*
X109362857Y-130234761D01*
X110648571Y-130234761D02*
X110553333Y-130282380D01*
X110362857Y-130282380D01*
X110267619Y-130234761D01*
X110220000Y-130139523D01*
X110220000Y-129758571D01*
X110267619Y-129663333D01*
X110362857Y-129615714D01*
X110553333Y-129615714D01*
X110648571Y-129663333D01*
X110696190Y-129758571D01*
X110696190Y-129853809D01*
X110220000Y-129949047D01*
X111124761Y-130282380D02*
X111124761Y-129615714D01*
X111124761Y-129806190D02*
X111172380Y-129710952D01*
X111220000Y-129663333D01*
X111315238Y-129615714D01*
X111410476Y-129615714D01*
X111648571Y-129282380D02*
X112267619Y-129282380D01*
X111934285Y-129663333D01*
X112077142Y-129663333D01*
X112172380Y-129710952D01*
X112220000Y-129758571D01*
X112267619Y-129853809D01*
X112267619Y-130091904D01*
X112220000Y-130187142D01*
X112172380Y-130234761D01*
X112077142Y-130282380D01*
X111791428Y-130282380D01*
X111696190Y-130234761D01*
X111648571Y-130187142D01*
%TO.C,GND1*%
X121951904Y-129330000D02*
X121856666Y-129282380D01*
X121713809Y-129282380D01*
X121570952Y-129330000D01*
X121475714Y-129425238D01*
X121428095Y-129520476D01*
X121380476Y-129710952D01*
X121380476Y-129853809D01*
X121428095Y-130044285D01*
X121475714Y-130139523D01*
X121570952Y-130234761D01*
X121713809Y-130282380D01*
X121809047Y-130282380D01*
X121951904Y-130234761D01*
X121999523Y-130187142D01*
X121999523Y-129853809D01*
X121809047Y-129853809D01*
X122428095Y-130282380D02*
X122428095Y-129282380D01*
X122999523Y-130282380D01*
X122999523Y-129282380D01*
X123475714Y-130282380D02*
X123475714Y-129282380D01*
X123713809Y-129282380D01*
X123856666Y-129330000D01*
X123951904Y-129425238D01*
X123999523Y-129520476D01*
X124047142Y-129710952D01*
X124047142Y-129853809D01*
X123999523Y-130044285D01*
X123951904Y-130139523D01*
X123856666Y-130234761D01*
X123713809Y-130282380D01*
X123475714Y-130282380D01*
X124999523Y-130282380D02*
X124428095Y-130282380D01*
X124713809Y-130282380D02*
X124713809Y-129282380D01*
X124618571Y-129425238D01*
X124523333Y-129520476D01*
X124428095Y-129568095D01*
%TO.C,stepper1*%
X107374761Y-109727619D02*
X107422380Y-109632380D01*
X107422380Y-109441904D01*
X107374761Y-109346666D01*
X107279523Y-109299047D01*
X107231904Y-109299047D01*
X107136666Y-109346666D01*
X107089047Y-109441904D01*
X107089047Y-109584761D01*
X107041428Y-109680000D01*
X106946190Y-109727619D01*
X106898571Y-109727619D01*
X106803333Y-109680000D01*
X106755714Y-109584761D01*
X106755714Y-109441904D01*
X106803333Y-109346666D01*
X106755714Y-109013333D02*
X106755714Y-108632380D01*
X106422380Y-108870476D02*
X107279523Y-108870476D01*
X107374761Y-108822857D01*
X107422380Y-108727619D01*
X107422380Y-108632380D01*
X107374761Y-107918095D02*
X107422380Y-108013333D01*
X107422380Y-108203809D01*
X107374761Y-108299047D01*
X107279523Y-108346666D01*
X106898571Y-108346666D01*
X106803333Y-108299047D01*
X106755714Y-108203809D01*
X106755714Y-108013333D01*
X106803333Y-107918095D01*
X106898571Y-107870476D01*
X106993809Y-107870476D01*
X107089047Y-108346666D01*
X106755714Y-107441904D02*
X107755714Y-107441904D01*
X106803333Y-107441904D02*
X106755714Y-107346666D01*
X106755714Y-107156190D01*
X106803333Y-107060952D01*
X106850952Y-107013333D01*
X106946190Y-106965714D01*
X107231904Y-106965714D01*
X107327142Y-107013333D01*
X107374761Y-107060952D01*
X107422380Y-107156190D01*
X107422380Y-107346666D01*
X107374761Y-107441904D01*
X106755714Y-106537142D02*
X107755714Y-106537142D01*
X106803333Y-106537142D02*
X106755714Y-106441904D01*
X106755714Y-106251428D01*
X106803333Y-106156190D01*
X106850952Y-106108571D01*
X106946190Y-106060952D01*
X107231904Y-106060952D01*
X107327142Y-106108571D01*
X107374761Y-106156190D01*
X107422380Y-106251428D01*
X107422380Y-106441904D01*
X107374761Y-106537142D01*
X107374761Y-105251428D02*
X107422380Y-105346666D01*
X107422380Y-105537142D01*
X107374761Y-105632380D01*
X107279523Y-105680000D01*
X106898571Y-105680000D01*
X106803333Y-105632380D01*
X106755714Y-105537142D01*
X106755714Y-105346666D01*
X106803333Y-105251428D01*
X106898571Y-105203809D01*
X106993809Y-105203809D01*
X107089047Y-105680000D01*
X107422380Y-104775238D02*
X106755714Y-104775238D01*
X106946190Y-104775238D02*
X106850952Y-104727619D01*
X106803333Y-104680000D01*
X106755714Y-104584761D01*
X106755714Y-104489523D01*
X107422380Y-103632380D02*
X107422380Y-104203809D01*
X107422380Y-103918095D02*
X106422380Y-103918095D01*
X106565238Y-104013333D01*
X106660476Y-104108571D01*
X106708095Y-104203809D01*
%TO.C,\u6447\u6746\u7535\u4F4D\u56682*%
X147932380Y-103972857D02*
X147932380Y-103639523D01*
X148075238Y-104401428D02*
X148075238Y-104068095D01*
X148265714Y-103830000D02*
X148265714Y-103210952D01*
X148503809Y-103972857D02*
X148503809Y-103163333D01*
X148884761Y-103925238D02*
X148884761Y-103258571D01*
X148932380Y-104401428D02*
X148932380Y-104210952D01*
X147789523Y-104210952D02*
X148932380Y-104210952D01*
X148646666Y-103925238D02*
X148884761Y-103925238D01*
X148265714Y-103544285D02*
X148884761Y-103544285D01*
X148599047Y-103258571D02*
X148932380Y-103258571D01*
X147980000Y-103877619D02*
X148122857Y-103830000D01*
X148218095Y-103830000D02*
X148360952Y-103972857D01*
X147980000Y-103591904D02*
X148122857Y-103591904D01*
X147932380Y-103258571D02*
X148170476Y-103353809D01*
X148408571Y-104068095D02*
X148503809Y-104401428D01*
X147837142Y-103258571D02*
X147884761Y-103734761D01*
X147884761Y-102353809D02*
X147884761Y-101734761D01*
X148075238Y-102877619D02*
X148075238Y-102449047D01*
X148360952Y-102449047D02*
X148360952Y-101687142D01*
X147789523Y-102639523D02*
X148932380Y-102639523D01*
X147884761Y-102068095D02*
X148932380Y-102068095D01*
X148265714Y-102639523D02*
X148456190Y-102449047D01*
X148075238Y-102639523D02*
X148694285Y-102925238D01*
X148313333Y-101449047D02*
X148313333Y-100353809D01*
X148599047Y-101449047D02*
X148599047Y-100353809D01*
X148932380Y-100877619D02*
X148932380Y-100258571D01*
X147980000Y-101449047D02*
X148694285Y-101449047D01*
X147789523Y-100877619D02*
X148932380Y-100877619D01*
X147980000Y-101449047D02*
X147980000Y-100353809D01*
X148599047Y-100353809D01*
X148694285Y-100210952D02*
X148932380Y-100258571D01*
X148075238Y-99591904D02*
X148075238Y-98782380D01*
X148884761Y-99639523D02*
X148884761Y-98734761D01*
X148027619Y-99734761D02*
X148932380Y-99734761D01*
X147789523Y-99163333D02*
X148075238Y-99163333D01*
X148218095Y-98925238D02*
X148884761Y-99115714D01*
X148218095Y-99401428D02*
X148741904Y-99353809D01*
X147837142Y-99639523D02*
X148122857Y-99782380D01*
X148313333Y-99972857D01*
X148170476Y-98353809D02*
X148170476Y-97972857D01*
X148170476Y-97782380D02*
X148170476Y-97401428D01*
X148313333Y-98496666D02*
X148313333Y-97306190D01*
X148884761Y-98353809D02*
X148884761Y-97972857D01*
X147884761Y-98353809D02*
X148170476Y-98353809D01*
X148551428Y-98306190D02*
X148932380Y-98306190D01*
X147884761Y-98353809D02*
X147884761Y-97972857D01*
X148170476Y-97972857D01*
X148599047Y-98449047D02*
X148599047Y-97972857D01*
X148932380Y-97972857D01*
X147884761Y-97782380D02*
X148170476Y-97782380D01*
X147884761Y-97782380D02*
X147884761Y-97353809D01*
X148170476Y-97353809D01*
X148313333Y-97925238D02*
X148599047Y-97258571D01*
X148218095Y-97925238D02*
X148456190Y-98115714D01*
X148599047Y-98496666D01*
X148599047Y-97782380D02*
X148599047Y-97353809D01*
X148932380Y-97353809D01*
X148599047Y-97782380D02*
X148932380Y-97782380D01*
X148884761Y-97782380D02*
X148884761Y-97353809D01*
X148027619Y-96925238D02*
X147980000Y-96877619D01*
X147932380Y-96782380D01*
X147932380Y-96544285D01*
X147980000Y-96449047D01*
X148027619Y-96401428D01*
X148122857Y-96353809D01*
X148218095Y-96353809D01*
X148360952Y-96401428D01*
X148932380Y-96972857D01*
X148932380Y-96353809D01*
X165932380Y-103496666D02*
X165932380Y-103163333D01*
X166075238Y-103925238D02*
X166075238Y-103591904D01*
X166265714Y-103353809D02*
X166265714Y-102734761D01*
X166503809Y-103496666D02*
X166503809Y-102687142D01*
X166884761Y-103449047D02*
X166884761Y-102782380D01*
X166932380Y-103925238D02*
X166932380Y-103734761D01*
X165789523Y-103734761D02*
X166932380Y-103734761D01*
X166646666Y-103449047D02*
X166884761Y-103449047D01*
X166265714Y-103068095D02*
X166884761Y-103068095D01*
X166599047Y-102782380D02*
X166932380Y-102782380D01*
X165980000Y-103401428D02*
X166122857Y-103353809D01*
X166218095Y-103353809D02*
X166360952Y-103496666D01*
X165980000Y-103115714D02*
X166122857Y-103115714D01*
X165932380Y-102782380D02*
X166170476Y-102877619D01*
X166408571Y-103591904D02*
X166503809Y-103925238D01*
X165837142Y-102782380D02*
X165884761Y-103258571D01*
X165884761Y-101877619D02*
X165884761Y-101258571D01*
X166075238Y-102401428D02*
X166075238Y-101972857D01*
X166360952Y-101972857D02*
X166360952Y-101210952D01*
X165789523Y-102163333D02*
X166932380Y-102163333D01*
X165884761Y-101591904D02*
X166932380Y-101591904D01*
X166265714Y-102163333D02*
X166456190Y-101972857D01*
X166075238Y-102163333D02*
X166694285Y-102449047D01*
X166313333Y-100972857D02*
X166313333Y-99877619D01*
X166599047Y-100972857D02*
X166599047Y-99877619D01*
X166932380Y-100401428D02*
X166932380Y-99782380D01*
X165980000Y-100972857D02*
X166694285Y-100972857D01*
X165789523Y-100401428D02*
X166932380Y-100401428D01*
X165980000Y-100972857D02*
X165980000Y-99877619D01*
X166599047Y-99877619D01*
X166694285Y-99734761D02*
X166932380Y-99782380D01*
X166075238Y-99115714D02*
X166075238Y-98306190D01*
X166884761Y-99163333D02*
X166884761Y-98258571D01*
X166027619Y-99258571D02*
X166932380Y-99258571D01*
X165789523Y-98687142D02*
X166075238Y-98687142D01*
X166218095Y-98449047D02*
X166884761Y-98639523D01*
X166218095Y-98925238D02*
X166741904Y-98877619D01*
X165837142Y-99163333D02*
X166122857Y-99306190D01*
X166313333Y-99496666D01*
X166170476Y-97877619D02*
X166170476Y-97496666D01*
X166170476Y-97306190D02*
X166170476Y-96925238D01*
X166313333Y-98020476D02*
X166313333Y-96830000D01*
X166884761Y-97877619D02*
X166884761Y-97496666D01*
X165884761Y-97877619D02*
X166170476Y-97877619D01*
X166551428Y-97830000D02*
X166932380Y-97830000D01*
X165884761Y-97877619D02*
X165884761Y-97496666D01*
X166170476Y-97496666D01*
X166599047Y-97972857D02*
X166599047Y-97496666D01*
X166932380Y-97496666D01*
X165884761Y-97306190D02*
X166170476Y-97306190D01*
X165884761Y-97306190D02*
X165884761Y-96877619D01*
X166170476Y-96877619D01*
X166313333Y-97449047D02*
X166599047Y-96782380D01*
X166218095Y-97449047D02*
X166456190Y-97639523D01*
X166599047Y-98020476D01*
X166599047Y-97306190D02*
X166599047Y-96877619D01*
X166932380Y-96877619D01*
X166599047Y-97306190D02*
X166932380Y-97306190D01*
X166884761Y-97306190D02*
X166884761Y-96877619D01*
%TO.C,\u6447\u6746\u7535\u4F4D\u56681*%
X147932380Y-81112857D02*
X147932380Y-80779523D01*
X148075238Y-81541428D02*
X148075238Y-81208095D01*
X148265714Y-80970000D02*
X148265714Y-80350952D01*
X148503809Y-81112857D02*
X148503809Y-80303333D01*
X148884761Y-81065238D02*
X148884761Y-80398571D01*
X148932380Y-81541428D02*
X148932380Y-81350952D01*
X147789523Y-81350952D02*
X148932380Y-81350952D01*
X148646666Y-81065238D02*
X148884761Y-81065238D01*
X148265714Y-80684285D02*
X148884761Y-80684285D01*
X148599047Y-80398571D02*
X148932380Y-80398571D01*
X147980000Y-81017619D02*
X148122857Y-80970000D01*
X148218095Y-80970000D02*
X148360952Y-81112857D01*
X147980000Y-80731904D02*
X148122857Y-80731904D01*
X147932380Y-80398571D02*
X148170476Y-80493809D01*
X148408571Y-81208095D02*
X148503809Y-81541428D01*
X147837142Y-80398571D02*
X147884761Y-80874761D01*
X147884761Y-79493809D02*
X147884761Y-78874761D01*
X148075238Y-80017619D02*
X148075238Y-79589047D01*
X148360952Y-79589047D02*
X148360952Y-78827142D01*
X147789523Y-79779523D02*
X148932380Y-79779523D01*
X147884761Y-79208095D02*
X148932380Y-79208095D01*
X148265714Y-79779523D02*
X148456190Y-79589047D01*
X148075238Y-79779523D02*
X148694285Y-80065238D01*
X148313333Y-78589047D02*
X148313333Y-77493809D01*
X148599047Y-78589047D02*
X148599047Y-77493809D01*
X148932380Y-78017619D02*
X148932380Y-77398571D01*
X147980000Y-78589047D02*
X148694285Y-78589047D01*
X147789523Y-78017619D02*
X148932380Y-78017619D01*
X147980000Y-78589047D02*
X147980000Y-77493809D01*
X148599047Y-77493809D01*
X148694285Y-77350952D02*
X148932380Y-77398571D01*
X148075238Y-76731904D02*
X148075238Y-75922380D01*
X148884761Y-76779523D02*
X148884761Y-75874761D01*
X148027619Y-76874761D02*
X148932380Y-76874761D01*
X147789523Y-76303333D02*
X148075238Y-76303333D01*
X148218095Y-76065238D02*
X148884761Y-76255714D01*
X148218095Y-76541428D02*
X148741904Y-76493809D01*
X147837142Y-76779523D02*
X148122857Y-76922380D01*
X148313333Y-77112857D01*
X148170476Y-75493809D02*
X148170476Y-75112857D01*
X148170476Y-74922380D02*
X148170476Y-74541428D01*
X148313333Y-75636666D02*
X148313333Y-74446190D01*
X148884761Y-75493809D02*
X148884761Y-75112857D01*
X147884761Y-75493809D02*
X148170476Y-75493809D01*
X148551428Y-75446190D02*
X148932380Y-75446190D01*
X147884761Y-75493809D02*
X147884761Y-75112857D01*
X148170476Y-75112857D01*
X148599047Y-75589047D02*
X148599047Y-75112857D01*
X148932380Y-75112857D01*
X147884761Y-74922380D02*
X148170476Y-74922380D01*
X147884761Y-74922380D02*
X147884761Y-74493809D01*
X148170476Y-74493809D01*
X148313333Y-75065238D02*
X148599047Y-74398571D01*
X148218095Y-75065238D02*
X148456190Y-75255714D01*
X148599047Y-75636666D01*
X148599047Y-74922380D02*
X148599047Y-74493809D01*
X148932380Y-74493809D01*
X148599047Y-74922380D02*
X148932380Y-74922380D01*
X148884761Y-74922380D02*
X148884761Y-74493809D01*
X148932380Y-73493809D02*
X148932380Y-74065238D01*
X148932380Y-73779523D02*
X147932380Y-73779523D01*
X148075238Y-73874761D01*
X148170476Y-73970000D01*
X148218095Y-74065238D01*
X165932380Y-80636666D02*
X165932380Y-80303333D01*
X166075238Y-81065238D02*
X166075238Y-80731904D01*
X166265714Y-80493809D02*
X166265714Y-79874761D01*
X166503809Y-80636666D02*
X166503809Y-79827142D01*
X166884761Y-80589047D02*
X166884761Y-79922380D01*
X166932380Y-81065238D02*
X166932380Y-80874761D01*
X165789523Y-80874761D02*
X166932380Y-80874761D01*
X166646666Y-80589047D02*
X166884761Y-80589047D01*
X166265714Y-80208095D02*
X166884761Y-80208095D01*
X166599047Y-79922380D02*
X166932380Y-79922380D01*
X165980000Y-80541428D02*
X166122857Y-80493809D01*
X166218095Y-80493809D02*
X166360952Y-80636666D01*
X165980000Y-80255714D02*
X166122857Y-80255714D01*
X165932380Y-79922380D02*
X166170476Y-80017619D01*
X166408571Y-80731904D02*
X166503809Y-81065238D01*
X165837142Y-79922380D02*
X165884761Y-80398571D01*
X165884761Y-79017619D02*
X165884761Y-78398571D01*
X166075238Y-79541428D02*
X166075238Y-79112857D01*
X166360952Y-79112857D02*
X166360952Y-78350952D01*
X165789523Y-79303333D02*
X166932380Y-79303333D01*
X165884761Y-78731904D02*
X166932380Y-78731904D01*
X166265714Y-79303333D02*
X166456190Y-79112857D01*
X166075238Y-79303333D02*
X166694285Y-79589047D01*
X166313333Y-78112857D02*
X166313333Y-77017619D01*
X166599047Y-78112857D02*
X166599047Y-77017619D01*
X166932380Y-77541428D02*
X166932380Y-76922380D01*
X165980000Y-78112857D02*
X166694285Y-78112857D01*
X165789523Y-77541428D02*
X166932380Y-77541428D01*
X165980000Y-78112857D02*
X165980000Y-77017619D01*
X166599047Y-77017619D01*
X166694285Y-76874761D02*
X166932380Y-76922380D01*
X166075238Y-76255714D02*
X166075238Y-75446190D01*
X166884761Y-76303333D02*
X166884761Y-75398571D01*
X166027619Y-76398571D02*
X166932380Y-76398571D01*
X165789523Y-75827142D02*
X166075238Y-75827142D01*
X166218095Y-75589047D02*
X166884761Y-75779523D01*
X166218095Y-76065238D02*
X166741904Y-76017619D01*
X165837142Y-76303333D02*
X166122857Y-76446190D01*
X166313333Y-76636666D01*
X166170476Y-75017619D02*
X166170476Y-74636666D01*
X166170476Y-74446190D02*
X166170476Y-74065238D01*
X166313333Y-75160476D02*
X166313333Y-73970000D01*
X166884761Y-75017619D02*
X166884761Y-74636666D01*
X165884761Y-75017619D02*
X166170476Y-75017619D01*
X166551428Y-74970000D02*
X166932380Y-74970000D01*
X165884761Y-75017619D02*
X165884761Y-74636666D01*
X166170476Y-74636666D01*
X166599047Y-75112857D02*
X166599047Y-74636666D01*
X166932380Y-74636666D01*
X165884761Y-74446190D02*
X166170476Y-74446190D01*
X165884761Y-74446190D02*
X165884761Y-74017619D01*
X166170476Y-74017619D01*
X166313333Y-74589047D02*
X166599047Y-73922380D01*
X166218095Y-74589047D02*
X166456190Y-74779523D01*
X166599047Y-75160476D01*
X166599047Y-74446190D02*
X166599047Y-74017619D01*
X166932380Y-74017619D01*
X166599047Y-74446190D02*
X166932380Y-74446190D01*
X166884761Y-74446190D02*
X166884761Y-74017619D01*
%TO.C,\u6447\u6746\u7535\u4F4D\u56683*%
X147932380Y-126832857D02*
X147932380Y-126499523D01*
X148075238Y-127261428D02*
X148075238Y-126928095D01*
X148265714Y-126690000D02*
X148265714Y-126070952D01*
X148503809Y-126832857D02*
X148503809Y-126023333D01*
X148884761Y-126785238D02*
X148884761Y-126118571D01*
X148932380Y-127261428D02*
X148932380Y-127070952D01*
X147789523Y-127070952D02*
X148932380Y-127070952D01*
X148646666Y-126785238D02*
X148884761Y-126785238D01*
X148265714Y-126404285D02*
X148884761Y-126404285D01*
X148599047Y-126118571D02*
X148932380Y-126118571D01*
X147980000Y-126737619D02*
X148122857Y-126690000D01*
X148218095Y-126690000D02*
X148360952Y-126832857D01*
X147980000Y-126451904D02*
X148122857Y-126451904D01*
X147932380Y-126118571D02*
X148170476Y-126213809D01*
X148408571Y-126928095D02*
X148503809Y-127261428D01*
X147837142Y-126118571D02*
X147884761Y-126594761D01*
X147884761Y-125213809D02*
X147884761Y-124594761D01*
X148075238Y-125737619D02*
X148075238Y-125309047D01*
X148360952Y-125309047D02*
X148360952Y-124547142D01*
X147789523Y-125499523D02*
X148932380Y-125499523D01*
X147884761Y-124928095D02*
X148932380Y-124928095D01*
X148265714Y-125499523D02*
X148456190Y-125309047D01*
X148075238Y-125499523D02*
X148694285Y-125785238D01*
X148313333Y-124309047D02*
X148313333Y-123213809D01*
X148599047Y-124309047D02*
X148599047Y-123213809D01*
X148932380Y-123737619D02*
X148932380Y-123118571D01*
X147980000Y-124309047D02*
X148694285Y-124309047D01*
X147789523Y-123737619D02*
X148932380Y-123737619D01*
X147980000Y-124309047D02*
X147980000Y-123213809D01*
X148599047Y-123213809D01*
X148694285Y-123070952D02*
X148932380Y-123118571D01*
X148075238Y-122451904D02*
X148075238Y-121642380D01*
X148884761Y-122499523D02*
X148884761Y-121594761D01*
X148027619Y-122594761D02*
X148932380Y-122594761D01*
X147789523Y-122023333D02*
X148075238Y-122023333D01*
X148218095Y-121785238D02*
X148884761Y-121975714D01*
X148218095Y-122261428D02*
X148741904Y-122213809D01*
X147837142Y-122499523D02*
X148122857Y-122642380D01*
X148313333Y-122832857D01*
X148170476Y-121213809D02*
X148170476Y-120832857D01*
X148170476Y-120642380D02*
X148170476Y-120261428D01*
X148313333Y-121356666D02*
X148313333Y-120166190D01*
X148884761Y-121213809D02*
X148884761Y-120832857D01*
X147884761Y-121213809D02*
X148170476Y-121213809D01*
X148551428Y-121166190D02*
X148932380Y-121166190D01*
X147884761Y-121213809D02*
X147884761Y-120832857D01*
X148170476Y-120832857D01*
X148599047Y-121309047D02*
X148599047Y-120832857D01*
X148932380Y-120832857D01*
X147884761Y-120642380D02*
X148170476Y-120642380D01*
X147884761Y-120642380D02*
X147884761Y-120213809D01*
X148170476Y-120213809D01*
X148313333Y-120785238D02*
X148599047Y-120118571D01*
X148218095Y-120785238D02*
X148456190Y-120975714D01*
X148599047Y-121356666D01*
X148599047Y-120642380D02*
X148599047Y-120213809D01*
X148932380Y-120213809D01*
X148599047Y-120642380D02*
X148932380Y-120642380D01*
X148884761Y-120642380D02*
X148884761Y-120213809D01*
X147932380Y-119832857D02*
X147932380Y-119213809D01*
X148313333Y-119547142D01*
X148313333Y-119404285D01*
X148360952Y-119309047D01*
X148408571Y-119261428D01*
X148503809Y-119213809D01*
X148741904Y-119213809D01*
X148837142Y-119261428D01*
X148884761Y-119309047D01*
X148932380Y-119404285D01*
X148932380Y-119690000D01*
X148884761Y-119785238D01*
X148837142Y-119832857D01*
X165932380Y-126356666D02*
X165932380Y-126023333D01*
X166075238Y-126785238D02*
X166075238Y-126451904D01*
X166265714Y-126213809D02*
X166265714Y-125594761D01*
X166503809Y-126356666D02*
X166503809Y-125547142D01*
X166884761Y-126309047D02*
X166884761Y-125642380D01*
X166932380Y-126785238D02*
X166932380Y-126594761D01*
X165789523Y-126594761D02*
X166932380Y-126594761D01*
X166646666Y-126309047D02*
X166884761Y-126309047D01*
X166265714Y-125928095D02*
X166884761Y-125928095D01*
X166599047Y-125642380D02*
X166932380Y-125642380D01*
X165980000Y-126261428D02*
X166122857Y-126213809D01*
X166218095Y-126213809D02*
X166360952Y-126356666D01*
X165980000Y-125975714D02*
X166122857Y-125975714D01*
X165932380Y-125642380D02*
X166170476Y-125737619D01*
X166408571Y-126451904D02*
X166503809Y-126785238D01*
X165837142Y-125642380D02*
X165884761Y-126118571D01*
X165884761Y-124737619D02*
X165884761Y-124118571D01*
X166075238Y-125261428D02*
X166075238Y-124832857D01*
X166360952Y-124832857D02*
X166360952Y-124070952D01*
X165789523Y-125023333D02*
X166932380Y-125023333D01*
X165884761Y-124451904D02*
X166932380Y-124451904D01*
X166265714Y-125023333D02*
X166456190Y-124832857D01*
X166075238Y-125023333D02*
X166694285Y-125309047D01*
X166313333Y-123832857D02*
X166313333Y-122737619D01*
X166599047Y-123832857D02*
X166599047Y-122737619D01*
X166932380Y-123261428D02*
X166932380Y-122642380D01*
X165980000Y-123832857D02*
X166694285Y-123832857D01*
X165789523Y-123261428D02*
X166932380Y-123261428D01*
X165980000Y-123832857D02*
X165980000Y-122737619D01*
X166599047Y-122737619D01*
X166694285Y-122594761D02*
X166932380Y-122642380D01*
X166075238Y-121975714D02*
X166075238Y-121166190D01*
X166884761Y-122023333D02*
X166884761Y-121118571D01*
X166027619Y-122118571D02*
X166932380Y-122118571D01*
X165789523Y-121547142D02*
X166075238Y-121547142D01*
X166218095Y-121309047D02*
X166884761Y-121499523D01*
X166218095Y-121785238D02*
X166741904Y-121737619D01*
X165837142Y-122023333D02*
X166122857Y-122166190D01*
X166313333Y-122356666D01*
X166170476Y-120737619D02*
X166170476Y-120356666D01*
X166170476Y-120166190D02*
X166170476Y-119785238D01*
X166313333Y-120880476D02*
X166313333Y-119690000D01*
X166884761Y-120737619D02*
X166884761Y-120356666D01*
X165884761Y-120737619D02*
X166170476Y-120737619D01*
X166551428Y-120690000D02*
X166932380Y-120690000D01*
X165884761Y-120737619D02*
X165884761Y-120356666D01*
X166170476Y-120356666D01*
X166599047Y-120832857D02*
X166599047Y-120356666D01*
X166932380Y-120356666D01*
X165884761Y-120166190D02*
X166170476Y-120166190D01*
X165884761Y-120166190D02*
X165884761Y-119737619D01*
X166170476Y-119737619D01*
X166313333Y-120309047D02*
X166599047Y-119642380D01*
X166218095Y-120309047D02*
X166456190Y-120499523D01*
X166599047Y-120880476D01*
X166599047Y-120166190D02*
X166599047Y-119737619D01*
X166932380Y-119737619D01*
X166599047Y-120166190D02*
X166932380Y-120166190D01*
X166884761Y-120166190D02*
X166884761Y-119737619D01*
D11*
%TO.C,E28_2G4T12S_1*%
X97850000Y-98180000D02*
X92850000Y-98180000D01*
X110350000Y-98160000D02*
X110350000Y-97480000D01*
X110350000Y-98194438D02*
X105350000Y-98194438D01*
X92850000Y-98160000D02*
X92850000Y-97480000D01*
%TO.C,5V1*%
X139700000Y-133330000D02*
X139700000Y-130830000D01*
X142220000Y-133330000D02*
X132100000Y-133330000D01*
X132100000Y-130830000D02*
X142220000Y-130830000D01*
X132100000Y-133330000D02*
X132100000Y-130830000D01*
X142220000Y-130830000D02*
X142220000Y-133330000D01*
%TO.C,stepper2*%
X110470000Y-115570000D02*
X107970000Y-115570000D01*
X110470000Y-123170000D02*
X107970000Y-123170000D01*
X107970000Y-123170000D02*
X107970000Y-113050000D01*
X107970000Y-113050000D02*
X110470000Y-113050000D01*
X110470000Y-113050000D02*
X110470000Y-123170000D01*
%TO.C,Rasberry_Pi_Pico_1*%
X140300000Y-70100000D02*
X140300000Y-70400000D01*
X122307000Y-72767000D02*
X122307000Y-70100000D01*
X140300000Y-80200000D02*
X140300000Y-80600000D01*
X140300000Y-118300000D02*
X140300000Y-118700000D01*
X140300000Y-113200000D02*
X140300000Y-113600000D01*
X140300000Y-108100000D02*
X140300000Y-108500000D01*
X140300000Y-92900000D02*
X140300000Y-93300000D01*
X119300000Y-103000000D02*
X119300000Y-103400000D01*
X140300000Y-75100000D02*
X140300000Y-75500000D01*
X119300000Y-100500000D02*
X119300000Y-100900000D01*
X119300000Y-97900000D02*
X119300000Y-98300000D01*
X140300000Y-87800000D02*
X140300000Y-88200000D01*
X119300000Y-108100000D02*
X119300000Y-108500000D01*
X119300000Y-105600000D02*
X119300000Y-106000000D01*
X119300000Y-110700000D02*
X119300000Y-111100000D01*
X119300000Y-92900000D02*
X119300000Y-93300000D01*
X119300000Y-75100000D02*
X119300000Y-75500000D01*
X119300000Y-82700000D02*
X119300000Y-83100000D01*
X119300000Y-72500000D02*
X119300000Y-72900000D01*
X119300000Y-70100000D02*
X119300000Y-70400000D01*
X140300000Y-85200000D02*
X140300000Y-85600000D01*
X126100000Y-121100000D02*
X119300000Y-121100000D01*
X119300000Y-90300000D02*
X119300000Y-90700000D01*
X140300000Y-77600000D02*
X140300000Y-78000000D01*
X119300000Y-85200000D02*
X119300000Y-85600000D01*
X140300000Y-95400000D02*
X140300000Y-95800000D01*
X140300000Y-100500000D02*
X140300000Y-100900000D01*
X119300000Y-95400000D02*
X119300000Y-95800000D01*
X140300000Y-110700000D02*
X140300000Y-111100000D01*
X130900000Y-121100000D02*
X131300000Y-121100000D01*
X119300000Y-115700000D02*
X119300000Y-116100000D01*
X140300000Y-72500000D02*
X140300000Y-72900000D01*
X140300000Y-90300000D02*
X140300000Y-90700000D01*
X119300000Y-70100000D02*
X140300000Y-70100000D01*
X119300000Y-118300000D02*
X119300000Y-118700000D01*
X128300000Y-121100000D02*
X128700000Y-121100000D01*
X119300000Y-87800000D02*
X119300000Y-88200000D01*
X140300000Y-103000000D02*
X140300000Y-103400000D01*
X140300000Y-82700000D02*
X140300000Y-83100000D01*
X119300000Y-80200000D02*
X119300000Y-80600000D01*
X119300000Y-72767000D02*
X122307000Y-72767000D01*
X140300000Y-97900000D02*
X140300000Y-98300000D01*
X119300000Y-77600000D02*
X119300000Y-78000000D01*
X140300000Y-115700000D02*
X140300000Y-116100000D01*
X140300000Y-121100000D02*
X133500000Y-121100000D01*
X119300000Y-113200000D02*
X119300000Y-113600000D01*
X140300000Y-105600000D02*
X140300000Y-106000000D01*
%TO.C,stepper3*%
X104160000Y-133330000D02*
X104160000Y-130830000D01*
X111760000Y-133330000D02*
X111760000Y-130830000D01*
X114280000Y-130830000D02*
X114280000Y-133330000D01*
X114280000Y-133330000D02*
X104160000Y-133330000D01*
X104160000Y-130830000D02*
X114280000Y-130830000D01*
%TO.C,GND1*%
X118130000Y-130830000D02*
X128250000Y-130830000D01*
X128250000Y-133330000D02*
X118130000Y-133330000D01*
X118130000Y-133330000D02*
X118130000Y-130830000D01*
X125730000Y-133330000D02*
X125730000Y-130830000D01*
X128250000Y-130830000D02*
X128250000Y-133330000D01*
%TO.C,stepper1*%
X110470000Y-111740000D02*
X107970000Y-111740000D01*
X107970000Y-111740000D02*
X107970000Y-101620000D01*
X107970000Y-101620000D02*
X110470000Y-101620000D01*
X110470000Y-104140000D02*
X107970000Y-104140000D01*
X110470000Y-101620000D02*
X110470000Y-111740000D01*
%TO.C,\u6447\u6746\u7535\u4F4D\u56682*%
X152480000Y-108330000D02*
X152480000Y-111330000D01*
X162480000Y-111330000D02*
X162480000Y-108330000D01*
X149480000Y-108330000D02*
X165480000Y-108330000D01*
X165480000Y-108330000D02*
X165480000Y-92330000D01*
X165480000Y-92330000D02*
X149480000Y-92330000D01*
X149480000Y-92330000D02*
X149480000Y-108330000D01*
%TO.C,\u6447\u6746\u7535\u4F4D\u56681*%
X162480000Y-88470000D02*
X162480000Y-85470000D01*
X152480000Y-85470000D02*
X152480000Y-88470000D01*
X149480000Y-85470000D02*
X165480000Y-85470000D01*
X165480000Y-85470000D02*
X165480000Y-69470000D01*
X165480000Y-69470000D02*
X149480000Y-69470000D01*
X149480000Y-69470000D02*
X149480000Y-85470000D01*
%TO.C,\u6447\u6746\u7535\u4F4D\u56683*%
X152480000Y-131190000D02*
X152480000Y-134190000D01*
X162480000Y-134190000D02*
X162480000Y-131190000D01*
X149480000Y-131190000D02*
X165480000Y-131190000D01*
X165480000Y-131190000D02*
X165480000Y-115190000D01*
X165480000Y-115190000D02*
X149480000Y-115190000D01*
X149480000Y-115190000D02*
X149480000Y-131190000D01*
%TD*%
M02*
