M48
; DRILL file {KiCad (6.0.1)} date Sun Feb 13 21:33:57 2022
; FORMAT={-:-/ absolute / metric / decimal}
; #@! TF.CreationDate,2022-02-13T21:33:57+08:00
; #@! TF.GenerationSoftware,Kicad,Pcbnew,(6.0.1)
; #@! TF.FileFunction,Plated,1,2,PTH
FMAT,2
METRIC
; #@! TA.AperFunction,Plated,PTH,ViaDrill
T1C0.300
; #@! TA.AperFunction,Plated,PTH,ViaDrill
T2C0.700
; #@! TA.AperFunction,Plated,PTH,ComponentDrill
T3C0.800
; #@! TA.AperFunction,Plated,PTH,ComponentDrill
T4C1.000
; #@! TA.AperFunction,Plated,PTH,ComponentDrill
T5C1.020
%
G90
G05
T1
X96.442Y-92.254
X96.442Y-93.01
X114.033Y-78.473
X114.567Y-79.007
T2
X97.79Y-109.22
X97.79Y-111.76
X97.79Y-114.3
X97.79Y-116.84
X99.06Y-95.25
X101.6Y-88.9
X104.14Y-86.36
X104.14Y-92.71
X106.68Y-90.17
X109.22Y-99.06
X113.665Y-81.28
X113.665Y-86.36
X114.3Y-92.71
X124.46Y-87.63
X124.46Y-90.17
X124.46Y-92.71
X124.46Y-95.25
X124.46Y-97.79
X124.46Y-100.33
X127.0Y-87.63
X127.0Y-90.17
X127.0Y-92.71
X127.0Y-95.25
X127.0Y-97.79
X127.0Y-100.33
X147.32Y-99.06
X152.4Y-120.65
X152.4Y-123.19
X152.4Y-125.73
X155.575Y-74.295
X155.575Y-76.835
X155.575Y-79.375
X156.21Y-98.425
X156.21Y-101.6
X156.21Y-104.14
X157.48Y-91.44
T4
X105.41Y-132.08
X107.95Y-132.08
X109.22Y-102.87
X109.22Y-105.41
X109.22Y-107.95
X109.22Y-110.49
X109.22Y-114.3
X109.22Y-116.84
X109.22Y-119.38
X109.22Y-121.92
X110.49Y-132.08
X113.03Y-132.08
X119.38Y-132.08
X121.92Y-132.08
X124.46Y-132.08
X127.0Y-132.08
X133.35Y-132.08
X135.89Y-132.08
X138.43Y-132.08
X140.97Y-132.08
X154.98Y-87.47
X154.98Y-110.33
X154.98Y-133.19
X157.48Y-87.47
X157.48Y-110.33
X157.48Y-133.19
X159.98Y-87.47
X159.98Y-110.33
X159.98Y-133.19
T5
X120.91Y-71.47
X120.91Y-74.01
X120.91Y-76.55
X120.91Y-79.09
X120.91Y-81.63
X120.91Y-84.17
X120.91Y-86.71
X120.91Y-89.25
X120.91Y-91.79
X120.91Y-94.33
X120.91Y-96.87
X120.91Y-99.41
X120.91Y-101.95
X120.91Y-104.49
X120.91Y-107.03
X120.91Y-109.57
X120.91Y-112.11
X120.91Y-114.65
X120.91Y-117.19
X120.91Y-119.73
X127.26Y-119.5
X129.8Y-119.5
X132.34Y-119.5
X138.69Y-71.47
X138.69Y-74.01
X138.69Y-76.55
X138.69Y-79.09
X138.69Y-81.63
X138.69Y-84.17
X138.69Y-86.71
X138.69Y-89.25
X138.69Y-91.79
X138.69Y-94.33
X138.69Y-96.87
X138.69Y-99.41
X138.69Y-101.95
X138.69Y-104.49
X138.69Y-107.03
X138.69Y-109.57
X138.69Y-112.11
X138.69Y-114.65
X138.69Y-117.19
X138.69Y-119.73
T3
G00X150.73Y-71.07
M15
G01X150.73Y-70.37
M16
G05
G00X150.73Y-84.57
M15
G01X150.73Y-83.87
M16
G05
G00X150.73Y-93.93
M15
G01X150.73Y-93.23
M16
G05
G00X150.73Y-107.43
M15
G01X150.73Y-106.73
M16
G05
G00X150.73Y-116.79
M15
G01X150.73Y-116.09
M16
G05
G00X150.73Y-130.29
M15
G01X150.73Y-129.59
M16
G05
G00X164.23Y-71.07
M15
G01X164.23Y-70.37
M16
G05
G00X164.23Y-84.57
M15
G01X164.23Y-83.87
M16
G05
G00X164.23Y-93.93
M15
G01X164.23Y-93.23
M16
G05
G00X164.23Y-107.43
M15
G01X164.23Y-106.73
M16
G05
G00X164.23Y-116.79
M15
G01X164.23Y-116.09
M16
G05
G00X164.23Y-130.29
M15
G01X164.23Y-129.59
M16
G05
T0
M30
